<?xml version="1.0" standalone="no"?>
<!DOCTYPE svg PUBLIC "-//W3C//DTD SVG 20010904//EN"
 "http://www.w3.org/TR/2001/REC-SVG-20010904/DTD/svg10.dtd">
<svg version="1.0" xmlns="http://www.w3.org/2000/svg"
 width="204.000000pt" height="204.000000pt" viewBox="0 0 204.000000 204.000000"
 preserveAspectRatio="xMidYMid meet">
<metadata>
Created by potrace 1.16, written by Peter Selinger 2001-2019
</metadata>
<g transform="translate(0.000000,204.000000) scale(0.100000,-0.100000)"
fill="#000000" stroke="none">
<path d="M545 1738 c-253 -126 -462 -232 -464 -234 -3 -2 6 -26 19 -53 l23
-50 428 215 c381 190 434 214 476 214 40 -1 72 -13 188 -75 206 -109 694 -355
703 -355 8 0 55 90 50 95 -2 2 -149 76 -328 165 -179 89 -327 166 -330 170 -9
14 -269 140 -287 139 -10 0 -225 -104 -478 -231z"/>
<path d="M136 1101 c-13 -24 -16 -115 -22 -525 l-7 -496 46 0 46 0 3 133 3
132 330 3 c182 2 538 0 793 -4 385 -5 465 -9 477 -21 12 -11 15 -43 15 -134
l0 -119 50 0 50 0 0 173 0 174 -487 6 c-269 4 -649 7 -845 7 -322 0 -358 2
-374 17 -15 16 -16 43 -9 330 7 292 6 315 -10 334 -25 27 -42 24 -59 -10z"/>
<path d="M424 998 c-48 -42 -58 -71 -39 -108 18 -35 65 -70 94 -70 31 0 90 59
97 97 6 29 1 38 -34 73 -22 22 -49 40 -60 40 -12 0 -38 -14 -58 -32z"/>
<path d="M735 920 c-10 -20 -15 -58 -15 -123 0 -59 -4 -97 -12 -105 -8 -8 -59
-12 -165 -12 -139 0 -153 -2 -162 -19 -8 -14 -6 -22 7 -33 15 -13 123 -16 775
-22 l757 -7 0 89 c0 85 -1 89 -30 117 -30 28 -31 29 -317 57 -159 15 -304 32
-323 37 -32 9 -426 51 -478 51 -14 0 -27 -11 -37 -30z"/>
</g>
</svg>
