<?xml version="1.0" standalone="no"?>
<!DOCTYPE svg PUBLIC "-//W3C//DTD SVG 20010904//EN"
 "http://www.w3.org/TR/2001/REC-SVG-20010904/DTD/svg10.dtd">
<svg version="1.0" xmlns="http://www.w3.org/2000/svg"
 width="229.000000pt" height="229.000000pt" viewBox="0 0 229.000000 229.000000"
 preserveAspectRatio="xMidYMid meet">
<metadata>
Created by potrace 1.16, written by Peter Selinger 2001-2019
</metadata>
<g transform="translate(0.000000,229.000000) scale(0.100000,-0.100000)"
fill="#000000" stroke="none">
<path d="M1784 2252 c-87 -41 -158 -130 -248 -309 -25 -51 -48 -93 -50 -93 -2
0 -14 21 -27 46 -12 27 -38 57 -60 73 -22 14 -43 40 -49 58 -13 37 -79 100
-114 109 -14 3 -27 15 -30 28 -3 12 -19 35 -36 51 -30 29 -33 30 -153 32 -140
3 -174 -9 -204 -71 -9 -20 -29 -40 -45 -47 -38 -16 -75 -61 -90 -110 -9 -31
-20 -45 -49 -59 -75 -39 -116 -116 -106 -202 5 -37 2 -56 -10 -75 -9 -13 -16
-44 -16 -69 0 -24 -2 -44 -4 -44 -3 0 -20 12 -39 26 -20 16 -52 29 -78 31 -37
5 -46 2 -55 -15 -15 -28 -4 -51 28 -58 40 -8 91 -36 91 -50 0 -7 -13 -15 -29
-19 -41 -9 -107 -59 -131 -98 -25 -41 -27 -175 -5 -479 8 -117 22 -326 29
-464 16 -280 22 -305 91 -361 67 -55 64 -55 697 -60 652 -6 653 -6 715 60 67
70 70 92 119 774 l28 382 -22 24 c-21 22 -21 24 -6 72 70 229 118 520 112 680
-3 88 -7 106 -31 148 -53 89 -144 125 -223 89z m104 -76 c15 -8 38 -34 52 -58
22 -38 25 -53 23 -136 -3 -134 -29 -301 -78 -497 -57 -227 -62 -238 -122 -266
-64 -29 -107 -28 -173 7 -75 40 -143 39 -222 -1 -32 -16 -60 -26 -64 -23 -17
18 93 291 221 548 154 306 208 389 277 423 41 20 52 21 86 3z m-897 -22 c20
-18 34 -18 49 1 35 42 108 -3 95 -58 -6 -23 -4 -25 40 -30 56 -6 94 -38 104
-87 5 -25 16 -39 45 -55 50 -28 77 -65 83 -115 5 -33 -11 -100 -23 -100 -4 0
-104 62 -104 65 0 1 7 17 17 35 14 30 15 38 2 74 -25 71 -46 76 -206 43 -165
-33 -187 -46 -191 -110 -3 -39 1 -50 28 -80 l31 -35 -40 -56 c-21 -31 -42 -72
-45 -92 l-7 -35 -41 36 c-70 64 -146 82 -210 49 -40 -21 -56 -7 -38 36 7 17
20 34 28 39 14 8 14 14 3 49 -30 89 11 162 96 172 l48 5 -3 52 c-3 47 -1 56
26 83 20 19 41 30 59 30 26 0 30 5 40 43 17 63 68 81 114 41z m282 -470 c38
-19 87 -63 87 -78 0 -6 -12 -39 -26 -73 -18 -42 -33 -63 -48 -67 -11 -3 -58
-28 -104 -55 -86 -51 -156 -70 -190 -52 -20 11 -42 89 -42 151 0 29 11 54 44
103 24 36 46 75 48 88 3 20 13 25 78 39 l75 16 23 -28 c13 -16 38 -36 55 -44z
m-499 -187 c58 -59 97 -141 103 -221 4 -38 1 -66 -5 -70 -5 -3 -39 7 -74 24
-83 39 -148 40 -220 4 -68 -34 -123 -30 -196 16 -50 31 -54 35 -48 64 9 45 44
74 120 102 37 13 96 46 132 74 88 67 126 69 188 7z m-265 -364 c32 2 76 14 99
26 57 29 102 26 178 -10 78 -38 130 -37 216 4 72 34 99 33 173 -3 80 -40 139
-40 220 0 75 38 101 38 172 0 76 -41 139 -41 234 0 67 28 69 29 69 8 0 -38
-50 -691 -64 -830 -15 -149 -24 -175 -79 -209 -31 -20 -45 -20 -627 -17 -659
4 -633 1 -681 70 -20 28 -24 49 -31 177 -4 80 -17 280 -28 445 -11 164 -20
318 -20 341 l0 44 56 -26 c47 -21 66 -25 113 -20z"/>
<path d="M1861 1979 c-25 -27 -35 -31 -72 -29 -74 4 -87 1 -124 -31 -29 -26
-35 -38 -33 -63 4 -45 45 -48 76 -6 22 29 25 30 76 24 38 -5 61 -2 84 10 59
30 82 95 42 116 -17 9 -25 6 -49 -21z"/>
<path d="M1809 1728 c-22 -41 -40 -48 -110 -41 -50 4 -73 2 -98 -11 -33 -18
-71 -69 -71 -97 0 -42 62 -48 75 -8 10 31 57 50 96 39 40 -12 82 -5 125 21 39
24 66 76 53 101 -14 26 -56 23 -70 -4z"/>
<path d="M1705 1444 l-28 -36 -61 6 c-52 5 -69 3 -106 -16 -55 -28 -92 -86
-71 -112 15 -18 61 -22 61 -6 0 6 11 22 25 36 23 23 29 24 88 18 50 -5 72 -3
100 11 57 27 90 90 62 119 -25 24 -40 20 -70 -20z"/>
<path d="M460 635 c-6 -8 -9 -23 -6 -33 6 -16 20 -20 104 -25 168 -12 217 -9
235 11 21 23 21 27 1 46 -22 23 -315 24 -334 1z"/>
<path d="M465 483 c-9 -8 -15 -25 -13 -37 3 -20 10 -21 200 -30 154 -7 201 -6
213 4 18 15 20 44 3 57 -7 6 -97 13 -200 16 -163 5 -190 4 -203 -10z"/>
<path d="M468 329 c-22 -12 -24 -55 -4 -62 8 -3 115 -9 238 -13 204 -6 225 -5
241 10 20 21 22 40 5 53 -18 15 -458 26 -480 12z"/>
</g>
</svg>
