<?xml version="1.0" standalone="no"?>
<!DOCTYPE svg PUBLIC "-//W3C//DTD SVG 20010904//EN"
 "http://www.w3.org/TR/2001/REC-SVG-20010904/DTD/svg10.dtd">
<svg version="1.0" xmlns="http://www.w3.org/2000/svg"
 width="514.000000pt" height="514.000000pt" viewBox="0 0 514.000000 514.000000"
 preserveAspectRatio="xMidYMid meet">
<metadata>
Created by potrace 1.16, written by Peter Selinger 2001-2019
</metadata>
<g transform="translate(0.000000,514.000000) scale(0.100000,-0.100000)"
fill="#000000" stroke="none">
<path d="M10 2570 l0 -2560 2560 0 2560 0 0 2560 0 2560 -2560 0 -2560 0 0
-2560z m5050 0 l0 -2490 -2490 0 -2490 0 0 2490 0 2490 2490 0 2490 0 0 -2490z"/>
<path d="M1125 4992 c-148 -51 -252 -145 -324 -292 l-36 -75 0 -2055 0 -2055
36 -75 c72 -147 184 -247 328 -293 49 -16 137 -17 1026 -17 927 0 974 1 1027
19 67 23 87 34 159 88 69 52 98 85 144 166 61 111 65 151 65 683 l0 474 21
-21 c11 -11 41 -30 67 -42 41 -19 64 -22 192 -22 139 0 148 1 202 28 64 31
112 81 140 145 17 38 19 62 16 196 -3 142 -5 155 -30 204 l-27 52 37 0 c100 1
122 34 122 186 0 102 1 109 26 135 20 21 28 42 34 100 14 115 30 418 30 563
-1 181 -8 189 -186 206 -60 5 -143 14 -184 19 -41 6 -147 17 -235 26 -88 9
-175 19 -192 21 l-33 5 0 584 c0 652 -2 678 -65 792 -46 81 -75 114 -144 166
-72 54 -92 65 -159 88 -53 18 -99 19 -1031 18 -893 0 -980 -2 -1026 -17z
m1997 -71 c87 -30 151 -72 224 -147 47 -49 111 -172 118 -229 3 -22 8 -49 10
-60 3 -11 5 -284 5 -607 l1 -587 43 -5 c23 -3 110 -12 192 -21 83 -8 206 -22
275 -30 69 -8 154 -17 190 -20 35 -4 73 -11 85 -17 45 -25 46 -32 40 -228 -4
-102 -8 -198 -10 -215 -2 -16 -7 -67 -10 -111 -8 -115 -13 -136 -36 -159 -19
-19 -35 -20 -394 -23 l-375 -3 0 -24 0 -25 344 0 344 0 25 -30 c46 -54 28
-189 -27 -204 -12 -3 -171 -6 -353 -6 l-333 0 -1 -747 c0 -412 -2 -757 -5
-768 -2 -11 -7 -38 -10 -60 -7 -57 -71 -180 -118 -229 -73 -75 -137 -117 -224
-147 -53 -18 -99 -19 -967 -19 -1012 0 -956 -3 -1075 66 -93 55 -161 131 -212
239 l-33 70 0 1995 0 1995 33 70 c52 108 120 185 212 238 119 69 57 66 1071
66 873 1 918 0 971 -18z m808 -2812 c0 -5 3 -8 8 -5 15 9 70 -22 109 -63 56
-55 72 -110 70 -224 -2 -81 -5 -98 -30 -140 -72 -121 -247 -171 -387 -109 -54
24 -104 68 -94 84 4 7 3 8 -4 4 -23 -14 -55 74 -58 161 -4 98 12 154 63 212
59 69 111 90 226 91 62 0 97 -4 97 -11z"/>
<path d="M1733 4923 c236 -2 618 -2 850 0 232 1 40 2 -428 2 -467 0 -657 -1
-422 -2z"/>
<path d="M1702 4473 c247 -2 649 -2 895 0 247 1 45 2 -447 2 -492 0 -694 -1
-448 -2z"/>
<path d="M1192 4420 c-23 -16 -51 -48 -62 -69 -20 -40 -20 -53 -20 -1584 0
-1684 -4 -1582 57 -1639 64 -60 42 -59 1008 -56 798 3 883 5 910 20 34 18 77
62 94 95 8 15 11 167 11 502 l0 480 -355 3 c-339 3 -355 4 -374 23 -11 11 -22
38 -25 60 -9 78 -23 211 -31 315 -4 41 -8 89 -10 105 -5 39 -13 122 -20 215
-4 41 -8 86 -10 100 -4 27 -11 104 -20 218 -4 41 -8 81 -10 91 -2 9 -6 48 -9
86 -11 121 -17 169 -21 173 -2 2 -57 13 -122 23 -65 11 -131 25 -146 31 -38
15 -57 56 -57 120 1 77 40 118 112 118 50 0 383 -57 407 -69 36 -20 44 -43 55
-166 3 -27 8 -81 12 -120 4 -38 7 -78 8 -87 0 -19 18 -23 171 -38 61 -6 121
-12 135 -15 14 -3 77 -9 140 -15 63 -6 127 -13 143 -16 l27 -6 0 504 0 504
-27 41 c-14 23 -43 51 -63 62 -38 21 -43 21 -952 21 l-915 0 -41 -30z m1849
-63 c18 -12 44 -38 56 -56 l23 -34 0 -428 0 -429 -33 0 c-18 0 -82 6 -143 14
-60 8 -146 17 -192 21 -82 7 -112 21 -112 50 0 65 -25 277 -35 302 -7 17 -25
39 -38 48 -36 23 -362 75 -475 75 -159 0 -182 -24 -182 -190 0 -120 11 -159
53 -182 12 -6 78 -22 147 -33 l125 -22 7 -49 c7 -51 27 -252 53 -529 76 -798
70 -755 98 -783 16 -16 40 -26 70 -29 l46 -5 -25 -40 c-31 -49 -48 -172 -40
-283 10 -127 21 -153 84 -215 75 -73 126 -90 275 -90 139 0 202 18 268 78 l49
44 0 -165 c0 -154 -1 -166 -22 -197 -30 -44 -66 -69 -114 -80 -22 -5 -394 -10
-836 -10 -863 0 -858 0 -916 54 -55 49 -52 -30 -52 1573 0 1465 0 1484 20
1523 11 22 37 51 57 65 l38 25 856 0 856 0 34 -23z m-106 -2256 c22 -10 56
-34 76 -52 59 -54 72 -91 76 -202 2 -83 -1 -107 -19 -148 -20 -49 -96 -128
-124 -130 -18 -2 -24 -4 -57 -17 -76 -32 -211 -3 -283 61 -55 48 -72 80 -80
149 -4 29 -8 55 -9 58 -1 3 1 35 6 72 12 97 56 161 144 206 55 29 211 30 270
3z"/>
<path d="M2784 3075 c-4 -8 10 -61 31 -118 60 -167 72 -192 92 -192 25 0 22
44 -6 115 -12 30 -31 81 -41 112 -10 32 -24 67 -30 78 -13 24 -38 26 -46 5z"/>
<path d="M3121 3056 c-9 -10 -4 -32 18 -92 16 -44 39 -106 51 -139 12 -33 28
-69 36 -80 13 -17 16 -18 30 -3 17 17 16 23 -36 158 -12 30 -28 75 -37 100
-23 69 -40 83 -62 56z"/>
<path d="M3461 3036 c-14 -16 -8 -41 29 -136 12 -30 26 -68 31 -85 27 -85 68
-128 77 -81 4 16 -38 144 -74 224 -8 18 -14 39 -14 46 0 7 -8 20 -19 30 -16
14 -20 15 -30 2z"/>
<path d="M3793 3009 c-8 -8 -5 -29 13 -78 14 -36 36 -97 49 -135 14 -38 32
-81 41 -94 14 -22 18 -23 31 -9 14 14 12 24 -15 104 -16 48 -35 99 -40 113
-45 114 -53 125 -79 99z"/>
<path d="M2668 2448 c-14 -36 -2 -38 263 -38 l259 0 0 25 0 25 -259 0 c-198 0
-260 -3 -263 -12z"/>
<path d="M1713 1053 c247 -2 647 -2 890 0 243 1 42 2 -448 2 -490 0 -688 -1
-442 -2z"/>
<path d="M2071 811 c-54 -36 -101 -105 -101 -149 0 -71 67 -154 141 -176 37
-11 51 -11 84 1 69 24 138 108 138 168 1 85 -100 184 -188 185 -17 0 -49 -13
-74 -29z m141 -103 c21 -23 38 -46 38 -51 0 -13 -85 -97 -98 -97 -17 0 -80 59
-87 80 -12 37 51 109 94 110 8 0 31 -19 53 -42z"/>
<path d="M1723 213 c236 -2 618 -2 850 0 232 1 40 2 -428 2 -467 0 -657 -1
-422 -2z"/>
</g>
</svg>
