<svg width="67" height="51" viewBox="0 0 67 51" fill="none" xmlns="http://www.w3.org/2000/svg">
<g opacity="1">
<path d="M19.8167 41.795L11.9785 8.57031C28.8638 9.07726 62.8918 9.95077 63.9213 9.38923C64.9508 8.82769 65.7541 10.1692 66.0271 10.9101L59.5927 41.21L57.7209 42.3799L19.8167 41.795Z" fill="white"/>
<path d="M52.6408 42.437L42.3433 35.1742C45.8163 31.8005 48.975 26.9967 51.9959 21.5652L62.2935 28.8281C58.1787 33.4881 54.6931 38.0613 52.6408 42.437Z" fill="#E60000"/>
<path d="M52.6442 34.7043C54.3228 34.7043 55.6835 33.3474 55.6835 31.6735C55.6835 29.9997 54.3228 28.6428 52.6442 28.6428C50.9657 28.6428 49.605 29.9997 49.605 31.6735C49.605 33.3474 50.9657 34.7043 52.6442 34.7043Z" fill="white"/>
<path d="M38.7373 25.0247H36.6214C36.5469 25.0247 36.4756 25.0541 36.423 25.1066C36.3704 25.1591 36.3408 25.2302 36.3408 25.3044V26.2305C36.3408 26.3047 36.3704 26.3759 36.423 26.4283C36.4756 26.4808 36.5469 26.5103 36.6214 26.5103H36.972V27.8979H38.3866V26.5103H38.7373C38.8117 26.5103 38.883 26.4808 38.9356 26.4283C38.9882 26.3759 39.0178 26.3047 39.0178 26.2305V25.3044C39.0178 25.2302 38.9882 25.1591 38.9356 25.1066C38.883 25.0541 38.8117 25.0247 38.7373 25.0247Z" fill="#E6E6E6"/>
<path d="M40.8571 33.5014C39.5613 31.6105 38.8988 29.3592 38.9646 27.0699C38.9658 27.0171 38.9486 26.9655 38.916 26.9238C38.8833 26.8822 38.8372 26.8532 38.7856 26.8416V26.4414H36.5509V26.836H36.5201C36.49 26.8361 36.4601 26.842 36.4323 26.8535C36.4045 26.8651 36.3793 26.8819 36.358 26.9032C36.3367 26.9245 36.3199 26.9497 36.3084 26.9775C36.2969 27.0052 36.291 27.0349 36.2911 27.065C36.2911 27.0705 36.2913 27.0761 36.2917 27.0816C36.4678 29.5288 35.8733 31.7235 34.5082 33.6655C34.4297 33.7771 34.3896 33.9111 34.3939 34.0474L34.6382 41.5847C34.6441 41.7528 34.7149 41.9121 34.8357 42.0295C34.9566 42.1468 35.1183 42.2131 35.2869 42.2144H40.3415C40.5121 42.213 40.6754 42.1453 40.7967 42.0256C40.9179 41.9059 40.9875 41.7437 40.9906 41.5736L41.0848 34.2555C41.0876 33.9869 41.0081 33.7238 40.8571 33.5014Z" fill="#E60000"/>
<path opacity="0.2" d="M38.2964 25.3257C38.2964 25.4857 38.2326 25.6393 38.1191 25.7524C38.0056 25.8656 37.8517 25.9292 37.6912 25.9292C37.5307 25.9292 37.3767 25.8656 37.2632 25.7524C37.1497 25.6393 37.0859 25.4857 37.0859 25.3257" fill="black"/>
<path d="M40.0564 36.0044H35.6568C35.5917 36.0044 35.5273 36.0184 35.4681 36.0456C35.4089 36.0727 35.3564 36.1122 35.314 36.1615C35.2716 36.2108 35.2403 36.2687 35.2224 36.3311C35.2046 36.3936 35.2004 36.4591 35.2103 36.5233L35.8752 40.8326H39.6928L40.5004 36.5378C40.5126 36.4728 40.5103 36.4058 40.4936 36.3418C40.477 36.2777 40.4464 36.2181 40.404 36.1672C40.3616 36.1162 40.3085 36.0752 40.2484 36.0471C40.1883 36.019 40.1228 36.0044 40.0564 36.0044Z" fill="white"/>
<path d="M32.7004 42.4251H20.0874C20.9692 37.6709 20.7664 31.93 20.0874 25.7561H32.7004C32.0395 31.93 31.842 37.6709 32.7004 42.4251Z" fill="#E60000"/>
<path d="M26.4699 36.6662C28.1485 36.6662 29.5092 35.3093 29.5092 33.6355C29.5092 31.9616 28.1485 30.6047 26.4699 30.6047C24.7914 30.6047 23.4307 31.9616 23.4307 33.6355C23.4307 35.3093 24.7914 36.6662 26.4699 36.6662Z" fill="white"/>
<path d="M58.8047 43.526H18.7339L10.2485 3.52597H3.00684V1.7312H11.7074L20.1928 41.7311H58.8047V43.526Z" fill="#4E5152"/>
<path d="M24.6065 50.8337C26.7367 50.8337 28.4635 49.1117 28.4635 46.9875C28.4635 44.8633 26.7367 43.1414 24.6065 43.1414C22.4763 43.1414 20.7495 44.8633 20.7495 46.9875C20.7495 49.1117 22.4763 50.8337 24.6065 50.8337Z" fill="#4E5152"/>
<path d="M53.4049 50.8337C55.535 50.8337 57.2618 49.1117 57.2618 46.9875C57.2618 44.8633 55.535 43.1414 53.4049 43.1414C51.2747 43.1414 49.5479 44.8633 49.5479 46.9875C49.5479 49.1117 51.2747 50.8337 53.4049 50.8337Z" fill="#4E5152"/>
<path d="M58.0739 42.6803H19.0873L12.2085 8.78198H64.5293C64.7963 8.78201 65.0601 8.83971 65.3025 8.9511C65.545 9.06249 65.7604 9.22493 65.934 9.42726C66.1075 9.62958 66.235 9.86699 66.3077 10.1231C66.3805 10.3793 66.3967 10.6481 66.3553 10.9111L59.8997 41.1233C59.8331 41.558 59.6121 41.9544 59.277 42.2401C58.9418 42.5259 58.5149 42.6821 58.0739 42.6803ZM19.5107 42.1675H58.0739C58.3922 42.1688 58.7003 42.0561 58.9422 41.8498C59.184 41.6435 59.3435 41.3574 59.3915 41.0437L65.8471 10.8315C65.877 10.6417 65.8654 10.4476 65.8129 10.2627C65.7604 10.0778 65.6684 9.90649 65.5432 9.76045C65.4179 9.61441 65.2624 9.49716 65.0874 9.41677C64.9124 9.33639 64.722 9.29478 64.5293 9.2948H12.8327L19.5107 42.1675Z" fill="#4E5152"/>
<path d="M58.0739 42.6803H19.0873L12.2085 8.78198H64.5293C64.7963 8.78201 65.0601 8.83971 65.3025 8.9511C65.545 9.06249 65.7605 9.22493 65.934 9.42726C66.1075 9.62958 66.235 9.86699 66.3077 10.1231C66.3805 10.3793 66.3967 10.6481 66.3553 10.9111L59.8997 41.1233C59.8331 41.558 59.6121 41.9544 59.277 42.2401C58.9418 42.5259 58.5149 42.6821 58.0739 42.6803ZM19.5107 42.1675H58.0739C58.3922 42.1688 58.7003 42.0561 58.9422 41.8498C59.184 41.6435 59.3435 41.3574 59.3915 41.0437L65.8471 10.8315C65.877 10.6417 65.8654 10.4476 65.8129 10.2627C65.7604 10.0778 65.6684 9.90649 65.5432 9.76045C65.4179 9.61441 65.2624 9.49716 65.0874 9.41677C64.9124 9.33639 64.722 9.29478 64.5293 9.2948H12.8327L19.5107 42.1675Z" fill="#4E5152"/>
<path d="M26.667 42.5721L22.1621 9.08039L22.6694 8.99683L27.1743 42.4886L26.667 42.5721Z" fill="#4E5152"/>
<path d="M51.7158 42.3157L51.208 42.2336L55.5813 8.99829L56.0891 9.08035L51.7158 42.3157Z" fill="#4E5152"/>
<path d="M39.7809 9.03906H39.2666V42.5308H39.7809V9.03906Z" fill="#4E5152"/>
<path d="M14.8362 18.0128L14.835 18.5256L64.6152 18.6458L64.6165 18.133L14.8362 18.0128Z" fill="#4E5152"/>
<path d="M61.1036 33.855L17.3706 34.1531L17.3741 34.6659L61.1072 34.3678L61.1036 33.855Z" fill="#4E5152"/>
<path d="M3.77863 3.91039C5.34073 3.91039 6.60707 3.22161 6.60707 2.37194C6.60707 1.52228 5.34073 0.833496 3.77863 0.833496C2.21653 0.833496 0.950195 1.52228 0.950195 2.37194C0.950195 3.22161 2.21653 3.91039 3.77863 3.91039Z" fill="#4E5152"/>
</g>
</svg>
