<svg width="56" height="51" viewBox="0 0 56 51" fill="none" xmlns="http://www.w3.org/2000/svg">
<path d="M4.58603 42.4433C4.58603 42.4433 0.598953 50.3327 3.99221 50.3327C7.38547 50.3327 50.1405 50.5023 51.3282 48.2967C52.1603 46.7514 51.7015 41.2503 51.3522 38.0949C51.2844 37.4816 50.9842 36.9177 50.5133 36.5189C50.0424 36.1202 49.4367 35.9171 48.8206 35.9512C39.5739 36.4616 5.02963 38.353 5.17985 38.117C5.47676 37.6504 5.26468 37.7776 5.26468 37.7776C5.26468 37.7776 3.90738 42.104 4.58603 42.4433Z" fill="#EBEBEB"/>
<path opacity="0.1" d="M50.9031 38.1746C50.8351 37.3762 50.5341 36.642 50.062 36.1229C49.5899 35.6038 48.9826 35.3393 48.3649 35.3837C39.094 36.0482 4.45933 38.5106 4.60994 38.2033C4.90762 37.5959 4.69499 37.7615 4.69499 37.7615C4.69499 37.7615 4.39124 39.019 4.14249 40.3922C4.17775 40.3876 4.2041 40.4307 4.08927 40.6931C4.07906 40.7523 4.06899 40.8115 4.05908 40.8708C5.44627 41.0488 38.7121 38.6835 47.7695 38.0344C48.3872 37.9899 48.9945 38.2544 49.4666 38.7735C49.9387 39.2926 50.2397 40.0268 50.3077 40.8252C50.5681 43.8795 51.0867 45.524 50.8914 48.5828C50.9668 48.5297 51.2211 48.49 51.4216 48.0819C52.1763 46.5455 51.6238 36.9768 50.9031 38.1746Z" fill="black"/>
<path d="M8.80519 31.28C8.36323 31.1445 7.80386 30.9696 7.85428 30.6844C7.88106 30.5328 8.08385 30.4146 8.23078 30.2875C8.51401 30.0426 8.59038 29.6976 8.28615 29.4611C7.98193 29.2246 7.24915 29.1929 6.98075 29.4432C6.84268 29.572 6.85099 29.7335 6.77971 29.8789C6.55732 30.3327 5.65753 30.5319 4.89315 30.7081C4.12877 30.8844 3.27355 31.2124 3.34541 31.6818C3.4238 32.1938 4.60298 32.648 4.12852 33.0847C3.95648 33.243 3.59456 33.3313 3.51754 33.5124C3.46336 33.6399 3.5722 33.7695 3.67786 33.8859L4.42876 34.7131C4.72751 35.0423 5.03534 35.4004 4.93528 35.7668C4.73695 36.493 3.12488 36.7708 1.84713 36.6892C1.37922 36.6594 0.829256 36.6185 0.507718 36.8151C0.25992 36.9666 0.260342 37.2026 0.342706 37.4046C0.554692 37.9246 1.23285 38.3749 2.10076 38.572C1.12801 38.7639 0.745976 39.5728 1.41759 40.0185C1.03326 40.1507 0.61774 40.1627 0.226462 40.0527C-0.105712 40.3585 0.0895668 40.7781 0.51086 41.0456C0.932153 41.3132 1.52899 41.4637 2.1069 41.6066L1.56606 42.1123C1.95745 42.4179 2.80265 42.3102 3.37261 42.117C3.94257 41.9238 4.56104 41.6644 5.19963 41.7655C5.79854 41.8603 6.25153 42.2598 6.86135 42.1914C7.33394 42.1384 7.55884 41.8347 7.70607 41.5725L8.33198 40.4582C9.22294 40.5975 10.1597 39.987 9.80191 39.5002C10.7989 39.6073 11.7803 38.9598 11.453 38.4109C11.9839 38.8204 12.3578 39.2961 12.5407 39.7951C12.6224 40.018 12.6721 40.2537 12.8947 40.4426C13.0403 40.5508 13.2088 40.624 13.3873 40.6563C13.5658 40.6885 13.7493 40.6791 13.9235 40.6287C13.7417 40.9813 13.5945 41.3925 13.9681 41.6917C14.3417 41.9908 15.4198 41.906 15.3722 41.5394C15.9419 41.7842 16.5804 42.0143 17.2924 42.0326C18.0044 42.0509 18.7837 41.7799 18.8485 41.3741C19.8519 41.705 20.9017 41.874 21.9583 41.8747C22.0482 41.6031 22.6758 41.5153 23.1451 41.5817C23.6144 41.648 24.0497 41.8075 24.5332 41.8078C25.0166 41.808 25.5365 41.5171 25.289 41.2797C26.307 41.4926 27.3519 41.5454 28.3862 41.436C29.3618 41.3324 30.2864 41.0862 31.2743 41.0331C32.2765 40.9721 33.2799 41.1306 34.2145 41.4975C34.5383 41.6333 34.9409 41.8042 35.2967 41.6977C35.4985 41.6373 35.5966 41.5068 35.7337 41.4028C36.3238 40.9551 37.5305 41.041 38.4615 41.217C39.3924 41.393 40.4753 41.6049 41.291 41.2938C41.5988 41.1764 41.8256 40.995 42.153 40.8965C43.3258 40.5435 44.7296 41.448 45.9744 41.1877C46.3798 41.103 46.7087 40.9002 47.1381 40.8752C47.8998 40.8308 48.4031 41.3471 49.1436 41.4581C49.912 41.5733 50.745 41.1058 50.5576 40.6645C51.2961 40.6808 52.0325 40.5785 52.7386 40.3613L52.3898 39.7335C53.259 39.7195 53.8984 39.0963 53.4957 38.6558C54.3674 38.4897 55.0566 38.043 55.2358 37.5278C55.4149 37.0126 55.0771 36.4491 54.3828 36.1051C53.973 35.9021 53.4348 35.7593 53.2006 35.4797C53.0319 35.2784 53.0565 35.0442 52.9909 34.8241C52.8473 34.3424 52.2249 33.9171 51.4209 33.7513C51.0717 33.6792 50.6896 33.6519 50.3735 33.5407C50.0573 33.4294 49.8289 33.1885 50.0114 33.0037C50.108 32.9059 50.294 32.8483 50.4143 32.7595C50.9019 32.3994 50.0658 31.9436 49.3519 31.7414L51.0566 31.6856L51.4226 30.026C50.7482 30.5745 48.9986 30.4592 48.5604 29.8372C49.108 30.0169 49.8424 29.7872 50.1101 29.4603C50.3779 29.1334 50.3121 28.7532 50.2406 28.3946C50.2338 28.3055 50.2041 28.2197 50.1543 28.1455C50.1045 28.0713 50.0364 28.0113 49.9565 27.9713C49.7896 27.8918 49.5238 27.8586 49.4691 27.7385C49.4132 27.6159 49.6291 27.5075 49.6611 27.3822C49.7226 27.1415 49.1695 27.0355 48.7959 26.9191C47.9147 26.6446 47.4879 25.873 46.4852 25.8981C45.4903 25.9229 45.2123 26.6825 45.2116 27.2519C45.2109 27.8212 44.8742 28.5825 43.8785 28.5721C43.4809 28.568 43.1343 28.425 42.8168 28.2881L39.9651 27.0582C39.5883 26.8829 39.1963 26.7424 38.794 26.6383C38.2188 26.5041 37.5833 26.4883 36.9625 26.4742L32.9733 26.3835C32.7702 26.3675 32.5657 26.3851 32.3683 26.4355C32.1587 26.5055 32.0569 26.6434 31.9307 26.7619C31.3752 27.2835 30.0692 27.4877 29.1267 27.2005C28.8768 27.1243 28.6528 27.0193 28.388 26.9619C27.5539 26.7812 26.6787 27.1156 25.8121 27.2364C24.3914 27.4345 22.626 27.0936 21.6018 27.6903C21.2604 27.8892 21.0792 28.1612 20.7628 28.3732C20.4464 28.5852 19.8754 28.729 19.4763 28.5689C19.5265 28.958 19.5721 29.364 19.3087 29.7239C19.0453 30.0838 18.3698 30.3775 17.7061 30.2868C17.3539 30.1937 17.3816 29.8976 17.5482 29.6972C17.7148 29.4969 17.9703 29.2921 17.8873 29.0754C17.8049 28.8604 17.4278 28.7354 17.1458 28.5855C16.8639 28.4357 16.6758 28.1516 16.9753 28.0133C16.7735 27.7539 16.0482 27.7856 15.7291 28.0031C15.4101 28.2206 15.3782 28.5268 15.3434 28.81C15.3086 29.0932 15.2328 29.4033 14.8631 29.5928C14.2331 29.9158 13.0237 29.7482 12.6058 30.1689C12.4731 30.3025 12.4653 30.4637 12.3893 30.6111C12.0504 31.2691 10.5871 31.4394 9.39101 31.4931C9.3658 31.63 9.3602 31.7698 9.37438 31.9083C9.78351 31.7312 9.10172 31.3708 8.80519 31.28Z" fill="#A8AAAA"/>
<path opacity="0.1" d="M50.241 29.3003C50.3125 29.6589 50.3783 30.0391 50.1106 30.366C50.0708 30.4132 50.0259 30.4557 49.9766 30.4928C50.3367 30.481 50.6968 30.4693 51.057 30.4575C51.179 29.9043 51.301 29.3511 51.423 28.7979C51.1436 29.0251 50.6797 29.1381 50.2009 29.1486C50.218 29.1981 50.2314 29.2488 50.241 29.3003Z" fill="black"/>
<path opacity="0.1" d="M50.556 31.2539C50.5134 31.0296 50.1435 30.8019 49.7294 30.6392C49.3648 30.8123 48.9502 30.8487 48.561 30.7417C48.8633 31.1706 49.7892 31.3585 50.556 31.2539Z" fill="black"/>
<path opacity="0.1" d="M51.0847 32.4634C51.0754 32.5057 51.066 32.548 51.0567 32.5903C50.4885 32.6089 49.9203 32.6274 49.3521 32.646C50.0659 32.8482 50.9021 33.304 50.4144 33.6641C50.2941 33.7529 50.1081 33.8105 50.0116 33.9084C49.8291 34.0932 50.0575 34.3341 50.3736 34.4453C50.6898 34.5565 51.0719 34.5839 51.4211 34.6559C52.2251 34.8217 52.8475 35.247 52.9911 35.7287C53.0567 35.9488 53.0321 36.183 53.2008 36.3844C53.435 36.6639 53.9731 36.8067 54.3829 37.0097C54.4224 37.0293 54.4604 37.0498 54.4975 37.0707C54.868 36.8612 55.1343 36.591 55.2359 36.2986C55.4151 35.7834 55.0772 35.2199 54.3829 34.8759C53.9731 34.6729 53.435 34.5301 53.2008 34.2505C53.0321 34.0492 53.0567 33.8149 52.9911 33.5949C52.8475 33.1132 52.2251 32.6879 51.4211 32.5221C51.3112 32.4994 51.198 32.4812 51.0847 32.4634Z" fill="black"/>
<path opacity="0.1" d="M1.14194 40.1067C1.27462 39.8241 1.61358 39.5732 2.10077 39.4771C1.63529 39.3805 1.19676 39.1827 0.816209 38.8977C0.617008 38.9036 0.418093 38.8787 0.226466 38.824C-0.105717 39.1298 0.0895685 39.5494 0.510868 39.817C0.70955 39.9372 0.921268 40.0343 1.14194 40.1067Z" fill="black"/>
<path opacity="0.1" d="M4.14894 31.8343C4.3917 31.7434 4.6404 31.6693 4.89329 31.6125C5.65766 31.4362 6.55746 31.237 6.77986 30.7833C6.85114 30.6379 6.84282 30.4764 6.9809 30.3476C7.2493 30.0973 7.98208 30.1289 8.2863 30.3655C8.59052 30.602 8.51416 30.947 8.23092 31.1919C8.084 31.319 7.88121 31.4372 7.85442 31.5887C7.80401 31.874 8.36337 32.0489 8.80533 32.1843C9.01337 32.2513 9.20815 32.354 9.38089 32.4879C9.38458 32.4576 9.38825 32.4274 9.39116 32.3975C10.5873 32.3438 12.0506 32.1734 12.3895 31.5155C12.4654 31.3681 12.4733 31.2069 12.606 31.0732C13.0238 30.6526 14.2333 30.8201 14.8633 30.4972C15.233 30.3077 15.3088 29.9975 15.3436 29.7144C15.3784 29.4312 15.4102 29.1249 15.7293 28.9074C16.0483 28.6899 16.7737 28.6583 16.9754 28.9177C16.676 29.056 16.864 29.34 17.146 29.4899C17.4279 29.6397 17.805 29.7648 17.8874 29.9798C17.9705 30.1965 17.715 30.4012 17.5484 30.6016C17.3818 30.802 17.354 31.098 17.7062 31.1911C18.37 31.2819 19.0455 30.9882 19.3089 30.6283C19.5723 30.2684 19.5266 29.8624 19.4765 29.4733C19.8756 29.6334 20.4465 29.4896 20.7629 29.2776C21.0794 29.0656 21.2605 28.7936 21.602 28.5946C22.6261 27.9979 24.3915 28.3389 25.8122 28.1408C26.6788 28.02 27.5541 27.6855 28.3882 27.8663C28.653 27.9237 28.8769 28.0287 29.1268 28.1048C30.0694 28.3921 31.3753 28.1878 31.9308 27.6663C32.057 27.5478 32.1589 27.4099 32.3684 27.3399C32.5659 27.2895 32.7703 27.2719 32.9735 27.2879C34.3032 27.3181 35.633 27.3483 36.9627 27.3785C37.5835 27.3926 38.2189 27.4085 38.7941 27.5427C39.1965 27.6467 39.5885 27.7873 39.9653 27.9626C40.9158 28.3725 41.8664 28.7825 42.817 29.1925C43.1344 29.3294 43.4811 29.4723 43.8787 29.4765C44.8744 29.4869 45.2111 28.7255 45.2117 28.1562C45.2124 27.5869 45.4905 26.8273 46.4854 26.8024C47.4881 26.7773 47.9148 27.5489 48.7961 27.8235C49.1696 27.9398 49.7227 28.0459 49.6613 28.2865C49.6327 28.3982 49.4588 28.4964 49.4606 28.6032C49.7087 28.5448 49.9345 28.4154 50.1103 28.2308C50.378 27.9039 50.3122 27.5237 50.2408 27.1651C50.234 27.076 50.2043 26.9902 50.1545 26.916C50.1047 26.8418 50.0365 26.7818 49.9566 26.7418C49.7898 26.6623 49.524 26.6292 49.4692 26.509C49.4134 26.3864 49.6292 26.278 49.6613 26.1527C49.7227 25.912 49.1696 25.806 48.7961 25.6896C47.9148 25.4151 47.4881 24.6435 46.4854 24.6686C45.4905 24.6935 45.2124 25.4531 45.2117 26.0224C45.2111 26.5917 44.8744 27.353 43.8787 27.3426C43.4811 27.3385 43.1344 27.1955 42.817 27.0586C41.8664 26.6486 40.9158 26.2387 39.9653 25.8287C39.5885 25.6534 39.1965 25.5129 38.7941 25.4089C38.2189 25.2746 37.5835 25.2588 36.9627 25.2447C35.633 25.2144 34.3032 25.1842 32.9735 25.154C32.7703 25.1381 32.5659 25.1556 32.3684 25.206C32.1589 25.2761 32.057 25.4139 31.9308 25.5324C31.3753 26.054 30.0694 26.2582 29.1268 25.971C28.8769 25.8948 28.653 25.7898 28.3882 25.7325C27.5541 25.5517 26.6788 25.8861 25.8122 26.0069C24.3915 26.205 22.6261 25.8641 21.602 26.4608C21.2605 26.6597 21.0794 26.9317 20.7629 27.1437C20.4465 27.3557 19.8756 27.4995 19.4765 27.3394C19.5266 27.7285 19.5723 28.1345 19.3089 28.4944C19.0455 28.8543 18.37 29.148 17.7062 29.0573C17.354 28.9642 17.3818 28.6681 17.5484 28.4677C17.715 28.2674 17.9705 28.0626 17.8874 27.8459C17.805 27.6309 17.4279 27.5059 17.146 27.356C16.8641 27.2062 16.676 26.9221 16.9754 26.7838C16.7737 26.5245 16.0483 26.5561 15.7293 26.7736C15.4102 26.9911 15.3784 27.2974 15.3436 27.5805C15.3088 27.8637 15.233 28.1739 14.8633 28.3634C14.2333 28.6863 13.0238 28.5188 12.606 28.9394C12.4733 29.073 12.4654 29.2342 12.3895 29.3816C12.0506 30.0396 10.5873 30.21 9.39116 30.2637C9.38825 30.2936 9.38458 30.3238 9.38089 30.354C9.20815 30.2201 9.01338 30.1174 8.80534 30.0505C8.36337 29.915 7.80401 29.7401 7.85442 29.4549C7.88121 29.3033 8.084 29.1851 8.23092 29.058C8.51416 28.8131 8.59052 28.4682 8.2863 28.2316C7.98208 27.9951 7.2493 27.9634 6.9809 28.2137C6.84282 28.3425 6.85115 28.504 6.77986 28.6494C6.55747 29.1032 5.65767 29.3024 4.89329 29.4786C4.12892 29.6549 3.27369 29.9829 3.34555 30.4523C3.4227 30.9561 4.56461 31.404 4.14894 31.8343Z" fill="black"/>
<path opacity="0.1" d="M2.10135 37.3423C1.89116 37.3811 1.69033 37.4597 1.50969 37.574C1.6242 37.579 1.73822 37.5865 1.84772 37.5935C3.12546 37.6751 4.73753 37.3972 4.93587 36.671C5.03593 36.3047 4.72809 35.9465 4.42934 35.6174C4.30925 35.4851 4.18916 35.3528 4.06909 35.2205C3.44393 35.4329 2.5897 35.507 1.84772 35.4596C1.37982 35.4297 0.829838 35.3888 0.508303 35.5855C0.260509 35.737 0.260936 35.973 0.343302 36.175C0.555277 36.695 1.23344 37.1453 2.10135 37.3423Z" fill="black"/>
<path d="M28.1246 38.1379C35.1523 38.1379 40.8493 34.3779 40.8493 29.7396C40.8493 25.1014 35.1523 21.3413 28.1246 21.3413C21.097 21.3413 15.3999 25.1014 15.3999 29.7396C15.3999 34.3779 21.097 38.1379 28.1246 38.1379Z" fill="#E60000"/>
<path opacity="0.2" d="M23.7978 25.0297C23.7978 25.0297 18.0293 25.6235 19.7259 23.1634C21.4225 20.7033 23.5433 19.855 24.5613 20.5336C25.5793 21.2123 26.0034 23.0786 25.8338 23.0786C25.6641 23.0786 23.204 21.6365 22.3557 22.7393C21.5074 23.8421 23.7978 25.0297 23.7978 25.0297Z" fill="white"/>
<path opacity="0.2" d="M28.7957 25.2715C28.7957 25.2715 33.5592 28.5786 30.6694 29.34C27.7796 30.1013 25.6179 29.3635 25.2876 28.1854C24.9573 27.0074 25.8512 25.3151 25.9799 25.4256C26.1087 25.5361 27.0358 28.2329 28.3978 27.9487C29.7598 27.6646 28.7957 25.2715 28.7957 25.2715Z" fill="white"/>
<path opacity="0.2" d="M29.9077 23.1982C29.9077 23.1982 30.2836 17.4114 32.4266 19.4943C34.5695 21.5772 35.0525 23.8097 34.2136 24.7004C33.3748 25.591 31.4639 25.6982 31.4922 25.5309C31.5205 25.3636 33.3525 23.1782 32.4065 22.158C31.4605 21.1377 29.9077 23.1982 29.9077 23.1982Z" fill="white"/>
<path d="M12.7696 37.4607C19.7973 37.4607 25.4944 33.7006 25.4944 29.0624C25.4944 24.4241 19.7973 20.6641 12.7696 20.6641C5.74197 20.6641 0.0449219 24.4241 0.0449219 29.0624C0.0449219 33.7006 5.74197 37.4607 12.7696 37.4607Z" fill="#E60000"/>
<path opacity="0.2" d="M8.44333 24.3503C8.44333 24.3503 2.67478 24.9441 4.37141 22.484C6.06804 20.0239 8.18884 19.1755 9.20681 19.8542C10.2248 20.5329 10.649 22.3992 10.4793 22.3992C10.3096 22.3992 7.84951 20.957 7.00119 22.0598C6.15288 23.1626 8.44333 24.3503 8.44333 24.3503Z" fill="white"/>
<path opacity="0.2" d="M13.4417 24.592C13.4417 24.592 18.2052 27.8992 15.3154 28.6605C12.4256 29.4219 10.2639 28.684 9.9336 27.506C9.60331 26.328 10.4972 24.6357 10.6259 24.7462C10.7547 24.8567 11.6818 27.5534 13.0438 27.2693C14.4059 26.9852 13.4417 24.592 13.4417 24.592Z" fill="white"/>
<path opacity="0.2" d="M14.5537 22.519C14.5537 22.519 14.9296 16.7322 17.0726 18.8151C19.2155 20.898 19.6985 23.1305 18.8596 24.0212C18.0208 24.9118 16.1099 25.019 16.1382 24.8517C16.1665 24.6844 17.9985 22.499 17.0525 21.4788C16.1065 20.4585 14.5537 22.519 14.5537 22.519Z" fill="white"/>
<path opacity="0.1" d="M19.3912 21.9141C22.1628 23.4546 23.9245 25.7615 23.9245 28.3403C23.9245 32.9786 18.2274 36.7386 11.1997 36.7386C8.79171 36.7386 6.54003 36.297 4.62012 35.53C6.83363 36.7604 9.69112 37.5021 12.8115 37.5021C19.8392 37.5021 25.5363 33.742 25.5363 29.1038C25.5363 26.0548 23.0744 23.3855 19.3912 21.9141Z" fill="black"/>
<path opacity="0.1" d="M34.7466 22.5088C37.5183 24.0494 39.2799 26.3562 39.2799 28.935C39.2799 33.5733 33.5829 37.3334 26.5552 37.3334C24.1472 37.3334 21.8955 36.8918 19.9756 36.1248C22.1891 37.3551 25.0466 38.0968 28.167 38.0968C35.1947 38.0968 40.8917 34.3368 40.8917 29.6985C40.8917 26.6496 38.4298 23.9802 34.7466 22.5088Z" fill="black"/>
<path d="M2.77992 25.294C2.77992 25.294 14.2391 13.0353 42.3096 18.0987C64.4996 22.1013 46.2779 28.9905 37.6694 31.7013C35.1718 32.4874 32.5845 32.9533 29.9696 33.0876C20.258 33.5877 -4.1697 34.0347 2.77992 25.294Z" fill="#4E5152"/>
<path opacity="0.1" d="M37.6697 28.9476C35.1721 29.7338 32.5848 30.1996 29.9699 30.3339C22.1024 30.7391 4.57811 31.1091 1.90073 26.5881C-1.48006 33.8956 20.8019 33.471 29.9699 32.9989C32.5848 32.8645 35.1721 32.3987 37.6696 31.6126C43.9795 29.6256 55.4535 25.3938 52.393 21.6992C50.3323 24.5986 42.4926 27.4289 37.6697 28.9476Z" fill="black"/>
<path opacity="0.1" d="M28.4077 16.5073L31.3768 22.3607" stroke="black" stroke-width="2" stroke-miterlimit="10"/>
<path opacity="0.1" d="M19.2461 18.6274L21.791 23.5477" stroke="black" stroke-width="2" stroke-miterlimit="10"/>
<path opacity="0.1" d="M33.7524 16.5073L37.7396 22.3607" stroke="black" stroke-width="2" stroke-miterlimit="10"/>
<path opacity="0.1" d="M19.2461 24.0573L45.968 20.6641" stroke="black" stroke-width="2" stroke-miterlimit="10"/>
<path opacity="0.1" d="M44.9492 17.6096L46.8155 20.2394" stroke="black" stroke-width="2" stroke-miterlimit="10"/>
<path opacity="0.1" d="M13.9858 20.6641L15.1735 23.1242" stroke="black" stroke-width="2" stroke-miterlimit="10"/>
<path d="M28.22 22.7883C28.22 23.7019 23.8142 25.9271 18.3795 25.9271C12.9448 25.9271 8.53906 23.7019 8.53906 22.7883C8.53906 21.8747 12.9448 21.5159 18.3795 21.5159C23.8142 21.5159 28.22 21.8747 28.22 22.7883Z" fill="#979999"/>
<path d="M18.7269 20.2665C18.7269 21.473 14.7575 24.4114 9.861 24.4114C4.96451 24.4114 0.995117 21.473 0.995117 20.2665C0.995117 19.0601 4.96451 18.5862 9.861 18.5862C14.7575 18.5862 18.7269 19.0601 18.7269 20.2665Z" fill="#979999"/>
<path d="M18.3795 24.4012C23.8142 24.4012 28.22 23.6606 28.22 22.747C28.22 21.8334 23.8142 21.0928 18.3795 21.0928C12.9448 21.0928 8.53906 21.8334 8.53906 22.747C8.53906 23.6606 12.9448 24.4012 18.3795 24.4012Z" fill="#A8AAAA"/>
<path d="M9.861 22.3953C14.7575 22.3953 18.7269 21.4173 18.7269 20.2108C18.7269 19.0044 14.7575 18.0264 9.861 18.0264C4.96451 18.0264 0.995117 19.0044 0.995117 20.2108C0.995117 21.4173 4.96451 22.3953 9.861 22.3953Z" fill="#A8AAAA"/>
<path d="M40.0959 21.2617C40.0959 22.1753 35.6902 24.4005 30.2555 24.4005C24.8208 24.4005 20.415 22.1753 20.415 21.2617C20.415 20.3481 24.8208 19.9893 30.2555 19.9893C35.6902 19.9893 40.0959 20.3481 40.0959 21.2617Z" fill="#979999"/>
<path d="M30.2555 22.8734C35.6902 22.8734 40.096 22.1328 40.096 21.2192C40.096 20.3056 35.6902 19.5649 30.2555 19.5649C24.8208 19.5649 20.415 20.3056 20.415 21.2192C20.415 22.1328 24.8208 22.8734 30.2555 22.8734Z" fill="#A8AAAA"/>
<path d="M51.9729 19.7339C51.9729 20.6475 47.5672 22.8727 42.1324 22.8727C36.6977 22.8727 32.292 20.6475 32.292 19.7339C32.292 18.8203 36.6977 18.4614 42.1324 18.4614C47.5672 18.4614 51.9729 18.8203 51.9729 19.7339Z" fill="#A8AAAA"/>
<path d="M42.1324 21.3467C47.5672 21.3467 51.9729 20.6061 51.9729 19.6925C51.9729 18.7789 47.5672 18.0383 42.1324 18.0383C36.6977 18.0383 32.292 18.7789 32.292 19.6925C32.292 20.6061 36.6977 21.3467 42.1324 21.3467Z" fill="#A8AAAA"/>
<path d="M5.89148 20.2026C5.89148 20.2026 1.84427 19.5437 3.91494 16.2495C5.9856 12.9553 6.59399 10.8078 9.34709 7.74074C11.2714 5.59699 29.4467 -8.65667 45.6905 9.23827C47.4114 11.1567 48.8103 13.3411 49.8329 15.7068C50.0294 16.154 50.2461 16.5554 50.4578 16.7672C51.1167 17.426 51.6814 19.3084 50.4578 20.2496C49.2343 21.1909 13.1859 24.8616 5.89148 20.2026Z" fill="#EBEBEB"/>
<path d="M24.8573 6.51064C24.6079 6.68408 24.3138 6.7821 24.0102 6.793C23.5423 6.793 23.1631 6.66658 23.1631 6.51064C23.1631 6.35469 23.5423 6.22827 24.0102 6.22827C24.3138 6.23917 24.6079 6.33719 24.8573 6.51064Z" fill="#F2F2F2"/>
<path d="M18.0804 4.72231C17.831 4.89575 17.5369 4.99377 17.2333 5.00467C16.7655 5.00467 16.3862 4.87825 16.3862 4.72231C16.3862 4.56636 16.7655 4.43994 17.2333 4.43994C17.5369 4.45084 17.831 4.54886 18.0804 4.72231Z" fill="#F2F2F2"/>
<path d="M36.4895 7.3283C36.1997 7.41936 35.8898 7.42511 35.5968 7.34487C35.1503 7.20519 34.8261 6.97131 34.8726 6.82247C34.9192 6.67364 35.3189 6.66622 35.7654 6.8059C36.0519 6.90695 36.3033 7.0883 36.4895 7.3283Z" fill="#F2F2F2"/>
<path d="M23.9714 2.52777C23.6816 2.61883 23.3717 2.62458 23.0787 2.54434C22.6322 2.40466 22.308 2.17077 22.3545 2.02194C22.4011 1.87311 22.8008 1.86569 23.2473 2.00537C23.5338 2.10642 23.7852 2.28776 23.9714 2.52777Z" fill="#F2F2F2"/>
<path d="M37.6194 4.22259C37.3296 4.31365 37.0197 4.3194 36.7266 4.23916C36.2801 4.09948 35.9559 3.86559 36.0025 3.71676C36.0491 3.56793 36.4488 3.56051 36.8953 3.70019C37.1818 3.80124 37.4332 3.98259 37.6194 4.22259Z" fill="#F2F2F2"/>
<path d="M34.8343 3.96937C34.5849 4.14282 34.2908 4.24084 33.9872 4.25174C33.5194 4.25174 33.1401 4.12532 33.1401 3.96937C33.1401 3.81343 33.5194 3.68701 33.9872 3.68701C34.2908 3.69791 34.5849 3.79593 34.8343 3.96937Z" fill="#F2F2F2"/>
<path d="M26.7401 2.27553C26.4907 2.44897 26.1966 2.54699 25.893 2.55789C25.4252 2.55789 25.0459 2.43147 25.0459 2.27553C25.0459 2.11958 25.4252 1.99316 25.893 1.99316C26.1966 2.00406 26.4907 2.10208 26.7401 2.27553Z" fill="#F2F2F2"/>
<path d="M32.952 2.27553C32.7026 2.44897 32.4085 2.54699 32.1049 2.55789C31.6371 2.55789 31.2578 2.43147 31.2578 2.27553C31.2578 2.11958 31.6371 1.99316 32.1049 1.99316C32.4085 2.00406 32.7026 2.10208 32.952 2.27553Z" fill="#F2F2F2"/>
<path d="M30.5989 5.94521C30.3495 6.11865 30.0555 6.21667 29.7519 6.22757C29.284 6.22757 28.9048 6.10115 28.9048 5.94521C28.9048 5.78926 29.284 5.66284 29.7519 5.66284C30.0555 5.67374 30.3495 5.77176 30.5989 5.94521Z" fill="#F2F2F2"/>
<path d="M23.7549 5.28603C23.8255 4.99055 23.9797 4.72164 24.199 4.51138C24.5481 4.19991 24.9152 4.04175 25.0191 4.15811C25.1229 4.27447 24.924 4.62129 24.575 4.93276C24.3412 5.12675 24.0565 5.24939 23.7549 5.28603Z" fill="#F2F2F2"/>
<path d="M19.519 4.25087C19.5897 3.95539 19.7438 3.68648 19.9631 3.47622C20.3122 3.16475 20.6794 3.00659 20.7832 3.12295C20.887 3.23931 20.6882 3.58614 20.3391 3.8976C20.1053 4.0916 19.8206 4.21423 19.519 4.25087Z" fill="#F2F2F2"/>
<path d="M12.1772 9.3324C12.2479 9.03693 12.402 8.76802 12.6213 8.55776C12.9704 8.24629 13.3376 8.08813 13.4414 8.20449C13.5452 8.32085 13.3464 8.66767 12.9973 8.97914C12.7635 9.17313 12.4788 9.29576 12.1772 9.3324Z" fill="#F2F2F2"/>
<path d="M28.4604 3.68568C28.5311 3.39021 28.6853 3.12129 28.9045 2.91103C29.2536 2.59957 29.6208 2.4414 29.7246 2.55777C29.8284 2.67413 29.6296 3.02095 29.2805 3.33241C29.0467 3.52641 28.762 3.64904 28.4604 3.68568Z" fill="#F2F2F2"/>
<path d="M26.7666 7.07314C26.8372 6.77766 26.9914 6.50875 27.2107 6.29848C27.5598 5.98702 27.9269 5.82886 28.0307 5.94522C28.1346 6.06158 27.9357 6.4084 27.5867 6.71987C27.3529 6.91386 27.0682 7.0365 26.7666 7.07314Z" fill="#F2F2F2"/>
</svg>
