<?xml version="1.0" standalone="no"?>
<!DOCTYPE svg PUBLIC "-//W3C//DTD SVG 20010904//EN"
 "http://www.w3.org/TR/2001/REC-SVG-20010904/DTD/svg10.dtd">
<svg version="1.0" xmlns="http://www.w3.org/2000/svg"
 width="227.000000pt" height="227.000000pt" viewBox="0 0 227.000000 227.000000"
 preserveAspectRatio="xMidYMid meet">
<metadata>
Created by potrace 1.16, written by Peter Selinger 2001-2019
</metadata>
<g transform="translate(0.000000,227.000000) scale(0.100000,-0.100000)"
fill="#000000" stroke="none">
<path d="M1686 1962 c-98 -37 -184 -76 -191 -85 -7 -10 -33 -70 -56 -133 l-44
-114 -296 0 c-350 0 -329 7 -329 -113 0 -80 13 -107 51 -107 14 0 19 -7 19
-29 0 -15 3 -50 6 -76 l7 -47 -74 7 c-231 21 -465 -131 -510 -331 -12 -51 -14
-54 -44 -54 -48 0 -55 -14 -55 -111 0 -65 4 -90 15 -99 9 -7 15 -29 15 -51 0
-29 8 -47 31 -73 53 -61 41 -71 -86 -74 -60 -1 -115 -8 -122 -14 -20 -16 -18
-182 3 -202 14 -14 128 -16 1109 -16 981 0 1095 2 1109 16 20 19 23 183 4 202
-7 7 -44 12 -94 12 -46 0 -85 4 -89 10 -3 5 4 120 15 255 23 264 22 275 -26
275 l-24 0 0 148 c0 132 -2 151 -18 165 -16 15 -47 17 -230 17 l-212 0 0 35
c0 28 4 35 19 35 39 0 51 27 51 109 0 98 -11 111 -93 111 -31 0 -57 1 -57 3 0
2 17 45 38 96 l37 94 156 57 c193 71 199 75 199 105 0 22 -25 46 -47 44 -4 0
-88 -31 -187 -67z m-136 -442 c0 -20 -7 -20 -345 -20 -338 0 -345 0 -345 20 0
20 7 20 345 20 338 0 345 0 345 -20z m-70 -145 c0 -34 -1 -35 -39 -35 -21 0
-43 -6 -49 -13 -7 -8 -13 -73 -14 -163 l-3 -149 -30 -5 c-28 -5 -30 -8 -33
-54 -2 -27 4 -130 12 -228 9 -99 16 -197 16 -219 l0 -39 -65 0 c-60 0 -65 2
-65 22 0 12 12 34 26 49 16 17 28 43 31 70 3 24 12 53 19 64 17 23 19 157 4
186 -7 13 -21 19 -44 19 -32 0 -34 3 -45 46 -28 111 -127 237 -218 277 -37 17
-41 23 -47 64 -3 25 -6 68 -6 94 l0 49 275 0 275 0 0 -35z m-587 -225 c100
-38 199 -146 222 -242 l7 -28 -386 0 c-435 0 -404 -7 -366 79 44 96 125 165
238 202 76 25 203 20 285 -11z m1097 -229 c0 -15 -60 -48 -117 -64 -129 -38
-292 -30 -393 21 -100 50 -90 52 224 52 167 0 286 -4 286 -9z m-430 -162 c37
-7 108 -10 183 -7 101 4 133 9 187 31 35 15 65 25 67 24 6 -7 -26 -320 -34
-328 -5 -5 -124 -8 -269 -7 l-259 3 -11 115 c-7 63 -12 138 -13 167 l-1 52 44
-19 c25 -10 72 -24 106 -31z m-350 11 c0 -20 -7 -20 -475 -20 -468 0 -475 0
-475 20 0 20 7 20 475 20 468 0 475 0 475 -20z m-35 -145 l0 -30 -440 0 c-416
0 -440 1 -443 18 -10 49 -23 47 445 45 l438 -3 0 -30z m-57 -137 c-4 -10 -89
-13 -383 -13 -294 0 -379 3 -382 13 -4 9 77 12 382 12 305 0 386 -3 383 -12z
m1052 -128 l0 -30 -1035 0 -1035 0 0 30 0 30 1035 0 1035 0 0 -30z"/>
</g>
</svg>
