<?xml version="1.0" standalone="no"?>
<!DOCTYPE svg PUBLIC "-//W3C//DTD SVG 20010904//EN"
 "http://www.w3.org/TR/2001/REC-SVG-20010904/DTD/svg10.dtd">
<svg version="1.0" xmlns="http://www.w3.org/2000/svg"
 width="227.000000pt" height="227.000000pt" viewBox="0 0 227.000000 227.000000"
 preserveAspectRatio="xMidYMid meet">
<metadata>
Created by potrace 1.16, written by Peter Selinger 2001-2019
</metadata>
<g transform="translate(0.000000,227.000000) scale(0.100000,-0.100000)"
fill="#000000" stroke="none">
<path d="M692 2117 c-19 -20 -22 -36 -24 -152 l-3 -130 -75 -5 c-87 -7 -152
-38 -194 -93 -14 -19 -53 -101 -87 -183 -34 -82 -62 -150 -64 -152 -2 -2 -27
4 -56 12 -74 22 -113 20 -145 -8 -24 -20 -28 -33 -32 -88 -3 -47 0 -74 12 -97
18 -34 69 -71 99 -71 21 0 21 5 -2 -56 -43 -112 -51 -198 -51 -546 0 -293 2
-333 17 -359 27 -45 68 -59 178 -59 163 0 195 29 195 175 l0 85 675 0 675 0 0
-85 c0 -153 30 -178 206 -173 113 3 114 3 146 36 l33 32 3 331 c3 352 -3 424
-48 554 -24 70 -24 65 -2 65 29 0 80 37 98 71 12 23 15 50 12 97 -4 55 -8 68
-32 88 -32 28 -71 30 -142 9 -27 -8 -52 -15 -55 -15 -4 0 -33 64 -65 143 -70
172 -89 202 -155 247 -43 29 -61 35 -127 40 l-77 5 -3 130 c-2 116 -5 132 -24
152 l-21 23 -422 0 -422 0 -21 -23z m268 -92 c0 -22 -4 -25 -35 -25 l-34 0 -3
-82 -3 -83 -32 -3 -33 -3 0 85 0 86 -35 0 c-31 0 -35 3 -35 25 l0 25 105 0
105 0 0 -25z m174 -77 c22 -54 43 -98 46 -98 4 0 21 18 39 41 l33 40 -36 54
c-20 30 -36 57 -36 60 0 3 16 5 35 5 28 0 37 -5 50 -30 9 -16 19 -30 23 -30 4
0 16 14 25 30 14 23 25 30 48 30 37 0 36 -11 -1 -65 -16 -24 -30 -47 -30 -52
0 -4 16 -28 35 -52 19 -24 35 -45 35 -47 0 -2 -15 -4 -32 -4 -27 0 -37 7 -56
36 l-24 36 -24 -36 c-24 -35 -27 -36 -85 -36 -54 0 -61 2 -71 25 -9 21 -18 25
-54 25 -36 0 -43 -3 -48 -25 -5 -20 -13 -25 -36 -25 -17 0 -30 4 -30 10 0 5
14 44 31 87 17 43 35 88 40 101 8 19 15 23 46 20 38 -3 38 -3 77 -100z m552
-228 c23 -12 49 -31 58 -44 26 -40 196 -463 196 -488 0 -35 -13 -49 -56 -58
-44 -11 -1462 -11 -1509 -1 -19 4 -35 16 -43 33 -12 26 -6 44 83 260 52 127
102 242 111 256 8 13 34 32 57 43 39 17 73 19 551 19 494 0 511 -1 552 -20z
m-978 -856 c20 -14 22 -23 22 -114 0 -76 -4 -102 -16 -114 -13 -13 -46 -16
-204 -16 -228 0 -220 -5 -220 132 0 130 -4 128 218 128 144 0 182 -3 200 -16z
m1240 0 c20 -14 22 -23 22 -118 0 -66 -4 -106 -12 -114 -8 -8 -68 -12 -204
-12 -166 0 -193 2 -205 17 -10 11 -14 46 -14 115 0 87 2 101 19 114 30 21 363
20 394 -2z"/>
</g>
</svg>
