<svg width="53" height="50" viewBox="0 0 53 50" fill="none" xmlns="http://www.w3.org/2000/svg">
<path d="M14.6256 43.6952H23.5263C24.7327 43.7375 25.9367 43.5608 27.0757 43.1744C27.1674 43.1405 27.2564 43.1067 27.3454 43.0676C27.7932 42.8827 30.9111 41.3228 35.9602 38.7968C39.7956 36.8775 44.1461 34.7004 46.4387 33.5884C47.1683 33.2282 47.7227 32.6063 47.9832 31.8561C48.2437 31.1059 48.1894 30.2871 47.8322 29.575C47.4749 28.8629 46.843 28.3143 46.0718 28.0467C45.3006 27.779 44.4515 27.8136 43.7065 28.1431L43.1671 28.3879C43.1076 28.2649 43.0401 28.1458 42.9648 28.0311C42.5565 27.4125 41.93 26.9574 41.2011 26.7501C40.4723 26.5429 39.6904 26.5974 38.9999 26.9035L36.6642 27.9452C36.3112 27.2214 35.6764 26.6616 34.898 26.3875C34.1196 26.1134 33.2605 26.1472 32.5078 26.4817L24.1682 30.1796C23.591 30.0676 23.1136 29.9713 22.798 29.9192C21.7326 29.7004 20.5081 29.3515 19.6693 29.0963C17.3236 28.378 14.7798 28.5762 12.5838 29.6483C10.008 30.9348 8.15506 33.2134 7.0708 36.4192" fill="#EBEBEB"/>
<path opacity="0.06" d="M33.5327 33.4583C33.4734 33.9166 33.2558 34.3423 32.9151 34.6666C32.5088 35.0502 31.9621 35.2635 31.3939 35.2603L22.8951 35.1562C22.8654 35.1562 20.2303 35.0442 18.8089 36.2942L18.701 36.3879C18.6791 36.4059 18.6615 36.4283 18.6494 36.4535C18.6373 36.4786 18.631 36.506 18.6309 36.5338C18.6309 36.587 18.6527 36.638 18.6917 36.6756C18.7306 36.7132 18.7835 36.7343 18.8385 36.7343C18.8695 36.7339 18.8999 36.7266 18.9275 36.7131C18.9551 36.6996 18.9791 36.6801 18.9977 36.6562C20.4541 35.5728 22.8627 35.6718 22.8924 35.6744L31.3831 35.7786C31.9542 35.7838 32.5041 35.5703 32.9124 35.1848C33.1147 34.9929 33.2752 34.7639 33.3845 34.5112C33.4938 34.2585 33.5497 33.9873 33.5489 33.7135C33.5488 33.6282 33.5434 33.5429 33.5327 33.4583Z" fill="black"/>
<path opacity="0.06" d="M48.1703 30.5156C48.1547 30.7084 48.1204 30.8994 48.0678 31.0859C47.9463 31.5098 47.7346 31.9044 47.4462 32.2448C47.1578 32.5851 46.799 32.8636 46.3928 33.0625C44.111 34.1745 39.7902 36.3359 35.9791 38.2448L35.9116 38.2786C30.8625 40.8047 27.7419 42.3646 27.2807 42.5521C27.189 42.5903 27.0991 42.6267 27.011 42.6615C25.8558 43.0505 24.6354 43.2272 23.4129 43.1823H13.1421V43.7031H23.4156C24.6381 43.748 25.8585 43.5714 27.0136 43.1823C27.1054 43.1493 27.1953 43.1128 27.2834 43.0729C27.7365 42.8854 30.8571 41.3255 35.9143 38.7995L35.9817 38.7656C39.7929 36.8568 44.1137 34.6953 46.3955 33.5833C46.9763 33.3031 47.4564 32.8607 47.7733 32.3136C48.0903 31.7666 48.2295 31.1401 48.173 30.5156H48.1703Z" fill="black"/>
<path d="M14.1319 45.7369C13.9902 45.737 13.8498 45.7101 13.7189 45.6579C13.5879 45.6056 13.4689 45.5289 13.3686 45.4322L5.32296 37.677C5.11981 37.4815 5.00539 37.2162 5.00488 36.9392C5.00438 36.6623 5.11782 36.3966 5.32026 36.2004C5.5227 36.0043 5.79755 35.8938 6.08435 35.8933C6.37115 35.8928 6.6464 36.0024 6.84956 36.1978L14.8952 43.9582C15.0463 44.1039 15.1492 44.2896 15.1909 44.4918C15.2326 44.6939 15.2112 44.9035 15.1295 45.094C15.0477 45.2844 14.9093 45.4471 14.7318 45.5616C14.5542 45.676 14.3454 45.7371 14.1319 45.7369Z" fill="#E60000"/>
<path opacity="0.12" d="M14.895 44.9115C14.7948 45.0083 14.6758 45.0851 14.5448 45.1376C14.4138 45.19 14.2735 45.217 14.1317 45.217C13.9899 45.217 13.8495 45.19 13.7185 45.1376C13.5876 45.0851 13.4686 45.0083 13.3684 44.9115L5.32271 37.1562C5.19074 37.0232 5.09767 36.8588 5.05299 36.6797C5.00447 36.8542 5.00382 37.038 5.05111 37.2129C5.0984 37.3877 5.192 37.5477 5.32271 37.6771L13.3684 45.4323C13.536 45.5925 13.7534 45.6952 13.9873 45.7248C14.2211 45.7543 14.4586 45.709 14.6633 45.5959C14.868 45.4827 15.0286 45.308 15.1206 45.0983C15.2127 44.8886 15.231 44.6556 15.1728 44.4349C15.1246 44.6143 15.0289 44.7786 14.895 44.9115Z" fill="black"/>
<g opacity="0.2">
<path opacity="0.2" d="M48.0514 31.7004C48.2091 31.144 48.199 30.5557 48.0222 30.0047C47.8454 29.4537 47.5093 28.9629 47.0534 28.59C46.5975 28.2172 46.0409 27.9778 45.4489 27.9C44.8569 27.8222 44.2542 27.9093 43.7117 28.1509L43.1723 28.3957C43.1128 28.2727 43.0453 28.1536 42.97 28.039C42.5617 27.4203 41.9352 26.9652 41.2063 26.758C40.4775 26.5507 39.6956 26.6052 39.0051 26.9114L36.6694 27.953C36.3164 27.2293 35.6816 26.6694 34.9032 26.3953C34.1248 26.1212 33.2657 26.1551 32.513 26.4895L24.168 30.1796L24.2759 30.2082L43.5606 35.0207C44.6854 34.4608 45.6806 33.9791 46.4439 33.5963C46.8339 33.4058 47.1783 33.1388 47.4551 32.8123C47.7319 32.4858 47.935 32.1071 48.0514 31.7004Z" fill="url(#paint0_linear)"/>
</g>
<path opacity="0.06" d="M42.9109 27.9739L32.2031 32.1848L33.1229 32.414L43.159 28.3853C43.0996 28.2623 43.032 28.1432 42.9567 28.0286L42.9109 27.9739Z" fill="black"/>
<path opacity="0.06" d="M36.3999 27.5234L27.2754 30.9557L28.1951 31.1849L36.6562 27.9479C36.5997 27.8321 36.5358 27.7199 36.4647 27.612C36.4446 27.5814 36.423 27.5519 36.3999 27.5234Z" fill="black"/>
<path d="M26.5387 25.0001C32.4971 25.0001 37.3274 20.3364 37.3274 14.5834C37.3274 8.83045 32.4971 4.16675 26.5387 4.16675C20.5803 4.16675 15.75 8.83045 15.75 14.5834C15.75 20.3364 20.5803 25.0001 26.5387 25.0001Z" fill="#E60000"/>
<path opacity="0.12" d="M26.5387 24.4792C23.7235 24.4801 21.0194 23.4184 19.0037 21.5209C16.988 19.6234 15.8204 17.0403 15.75 14.323C15.75 14.4089 15.75 14.4949 15.75 14.5834C15.75 17.3461 16.8867 19.9956 18.9099 21.9491C20.9332 23.9026 23.6774 25.0001 26.5387 25.0001C29.4 25.0001 32.1442 23.9026 34.1674 21.9491C36.1907 19.9956 37.3274 17.3461 37.3274 14.5834C37.3274 14.4949 37.3274 14.4089 37.3274 14.323C37.257 17.0403 36.0893 19.6234 34.0737 21.5209C32.058 23.4184 29.3539 24.4801 26.5387 24.4792Z" fill="black"/>
<path d="M24.1382 19.2708V10.1562H26.8974C27.4562 10.1488 27.9993 10.3349 28.4282 10.6808C28.8572 11.0267 29.1437 11.5094 29.2358 12.0416C29.2847 12.3564 29.2627 12.6777 29.1713 12.9835C29.0799 13.2893 28.9213 13.5725 28.7062 13.8137C28.4912 14.055 28.2248 14.2486 27.9252 14.3814C27.6256 14.5142 27.2999 14.5831 26.9702 14.5833H24.1382" stroke="#EBEBEB" stroke-linecap="round" stroke-linejoin="round"/>
<path d="M26.4365 14.5833C27.4048 14.5833 28.2301 14.9583 28.5349 15.7942L29.6516 19.2708" stroke="#EBEBEB" stroke-linecap="round" stroke-linejoin="round"/>
<defs>
<linearGradient id="paint0_linear" x1="24.168" y1="30.6145" x2="48.1647" y2="30.6145" gradientUnits="userSpaceOnUse">
<stop/>
<stop offset="1" stop-opacity="0"/>
</linearGradient>
</defs>
</svg>
