<svg width="48" height="47" viewBox="0 0 48 47" fill="none" xmlns="http://www.w3.org/2000/svg">
<path d="M41.2889 37.2084H6.0389C4.95734 37.2084 4.08057 36.3316 4.08057 35.2501V11.7501C4.08057 10.6685 4.95734 9.79175 6.0389 9.79175H41.2889C42.3705 9.79175 43.2472 10.6685 43.2472 11.7501V35.2501C43.2472 36.3316 42.3705 37.2084 41.2889 37.2084Z" fill="#EBEBEB"/>
<rect x="4.08057" y="13.7083" width="39.1667" height="4.89583" fill="#E60000"/>
<g opacity="0.06">
<rect x="7.01807" y="30.7214" width="10.7708" height="0.979164" fill="black"/>
</g>
<g opacity="0.06">
<rect x="18.7681" y="30.7214" width="6.85417" height="0.979164" fill="black"/>
</g>
<g opacity="0.06">
<rect x="7.01807" y="32.6797" width="7.83333" height="0.979168" fill="black"/>
</g>
<rect x="32.4766" y="32.6797" width="7.83333" height="0.979168" fill="#333333"/>
<g opacity="0.06">
<rect x="7.01807" y="21.6641" width="33.2917" height="4.89583" rx="2.44792" fill="black"/>
</g>
<path fill-rule="evenodd" clip-rule="evenodd" d="M16.7194 29.4973C16.6621 29.4324 16.6203 29.3554 16.597 29.2721C16.5912 29.238 16.5912 29.2033 16.597 29.1693C16.597 29.1154 16.597 29.0615 16.6142 29.0077C16.6179 28.9542 16.6252 28.9011 16.6362 28.8486C16.6529 28.7918 16.6733 28.7362 16.6974 28.6821C16.7132 28.6424 16.732 28.6039 16.7537 28.5671C16.8111 28.4556 16.8766 28.3484 16.9495 28.2464C16.9849 28.1983 17.0233 28.1525 17.0646 28.1093C17.0822 28.0916 17.0946 28.0725 17.1072 28.053C17.1172 28.0375 17.1274 28.0217 17.1405 28.0065C17.1698 27.9722 17.2604 27.8743 17.3241 27.8082C17.361 27.7698 17.4012 27.7346 17.444 27.703C17.4979 27.6642 17.5471 27.6232 17.5965 27.582L17.5965 27.582L17.5965 27.582L17.5965 27.582C17.6346 27.5503 17.6728 27.5184 17.7133 27.4875L17.9801 27.2795C18.0486 27.2256 18.1196 27.1742 18.1955 27.1252C18.2539 27.0876 18.3181 27.0542 18.3826 27.0208L18.3826 27.0208C18.4019 27.0108 18.4212 27.0008 18.4403 26.9906L18.7683 26.8119L19.0866 26.6381C19.1026 26.6294 19.1212 26.6224 19.1393 26.6155C19.1517 26.6109 19.1638 26.6063 19.1747 26.6014C19.1877 26.5955 19.2013 26.5867 19.2155 26.5775L19.2155 26.5775C19.2306 26.5678 19.2464 26.5576 19.2628 26.55L19.4268 26.4765C19.4509 26.4621 19.4739 26.4457 19.4954 26.4276C19.3472 26.4137 19.201 26.3834 19.0596 26.337C18.979 26.3161 18.9001 26.2925 18.8215 26.2689L18.8215 26.2689L18.8215 26.2689L18.8215 26.2689C18.7712 26.2538 18.721 26.2387 18.6704 26.2244C18.628 26.2124 18.5898 26.2007 18.5536 26.1896C18.4789 26.1666 18.4125 26.1462 18.335 26.1314C18.2517 26.1123 18.1698 26.0869 18.0903 26.0555C18.0433 26.0393 17.9963 26.0257 17.9484 26.0118L17.8969 25.9968C17.7845 25.9652 17.6741 25.9268 17.5664 25.8817C17.5032 25.8608 17.4386 25.8444 17.373 25.8327H17.3559L17.0646 25.7348C17.0401 25.7348 17.0083 25.7348 16.9813 25.7226L16.81 25.6785C16.7714 25.6665 16.7322 25.6567 16.6925 25.6492C16.6676 25.6431 16.6415 25.6431 16.6166 25.6492L16.3718 25.7642C16.3536 25.7727 16.3355 25.7814 16.3174 25.7901L16.3173 25.7901L16.3173 25.7902L16.3173 25.7902L16.3173 25.7902C16.2573 25.8189 16.1965 25.8481 16.127 25.8744L16.0799 25.8923C16.0049 25.9211 15.9293 25.95 15.8504 25.9723C15.7549 25.9992 15.5885 26.0433 15.4563 26.0775C15.4293 26.0775 15.4024 26.0867 15.3748 26.0961L15.3748 26.0961C15.3574 26.102 15.3397 26.108 15.3217 26.1118L14.7856 26.2146C14.6558 26.2391 14.5261 26.2587 14.3964 26.2783L14.3963 26.2783C14.2955 26.2935 14.2183 26.2998 14.1372 26.3065L14.1372 26.3065L14.1371 26.3065C14.1139 26.3084 14.0904 26.3104 14.0659 26.3125C14.0389 26.3149 14.0104 26.3176 13.9812 26.3204L13.9812 26.3204L13.9811 26.3204L13.9811 26.3204C13.8909 26.3289 13.7929 26.3382 13.706 26.3419C13.4922 26.3618 13.2767 26.3544 13.0647 26.3199C13.0364 26.3138 13.0081 26.3081 12.98 26.3025L12.98 26.3025L12.9799 26.3025L12.9799 26.3025L12.9799 26.3025L12.9799 26.3025L12.9799 26.3025C12.9179 26.2902 12.8567 26.278 12.7979 26.2611C12.6931 26.236 12.5989 26.1786 12.5286 26.0971C12.4736 26.0444 12.4382 25.9744 12.4282 25.8988V25.7813C12.4517 25.7167 12.4812 25.6544 12.5163 25.5953C12.5628 25.5301 12.619 25.4723 12.6828 25.4239C12.7642 25.363 12.8511 25.3097 12.9423 25.2648C13.0246 25.2247 13.1107 25.1927 13.1993 25.1694C13.3251 25.1352 13.4526 25.1074 13.5812 25.0861C13.6962 25.0665 13.8137 25.0568 13.9312 25.0494C14.0315 25.0435 14.1321 25.0435 14.2323 25.0494C14.3504 25.0494 14.4684 25.0621 14.5856 25.0747H14.5856H14.5856H14.5856L14.5857 25.0747L14.5857 25.0747C14.6313 25.0796 14.6767 25.0845 14.7219 25.0886C14.8026 25.0886 14.8821 25.103 14.9621 25.1176L14.9622 25.1176L14.9622 25.1176L14.9622 25.1176C14.9962 25.1238 15.0303 25.13 15.0646 25.1351C15.1051 25.1351 15.1444 25.1458 15.1842 25.1566L15.1842 25.1566L15.1842 25.1566C15.2046 25.1621 15.225 25.1677 15.2458 25.1718L15.5273 25.233L15.7305 25.2795L15.8749 25.3113L16.0634 25.3627L16.4208 25.4631L16.5456 25.4998C16.5985 25.5239 16.6592 25.5239 16.7121 25.4998C16.7898 25.4617 16.8714 25.4265 16.9532 25.3911L16.9532 25.3911L16.9532 25.3911L16.9533 25.391C17.0028 25.3696 17.0524 25.3482 17.1013 25.326L17.3461 25.2036C17.3632 25.1955 17.3806 25.1876 17.398 25.1797C17.4329 25.1639 17.4677 25.1481 17.5003 25.1302C17.5215 25.1185 17.5487 25.1018 17.5783 25.0836L17.5783 25.0836C17.617 25.0598 17.6598 25.0335 17.6986 25.0127C17.7301 24.9958 17.7637 24.9794 17.7977 24.9629L17.7977 24.9629L17.7977 24.9629L17.7977 24.9629C17.8376 24.9434 17.8781 24.9237 17.9165 24.9025L18.3277 24.6773C18.3648 24.6564 18.4008 24.6336 18.4354 24.6088C18.4457 24.6013 18.452 24.5896 18.4525 24.577C18.4506 24.5098 18.4829 24.4462 18.5382 24.4081C18.5684 24.3834 18.6072 24.3719 18.6459 24.3762C18.6599 24.3765 18.6735 24.3808 18.6851 24.3885C18.699 24.4035 18.7185 24.412 18.739 24.412C18.7594 24.412 18.7789 24.4035 18.7928 24.3885L18.9886 24.271C19.0143 24.2549 19.0391 24.2384 19.064 24.2218C19.0959 24.2005 19.128 24.179 19.1624 24.1584C19.1916 24.1409 19.2286 24.1211 19.2673 24.1005L19.2673 24.1005L19.2673 24.1004L19.2674 24.1004C19.3097 24.0778 19.3542 24.0541 19.3925 24.0311C19.4452 23.9995 19.5066 23.9579 19.5669 23.917L19.567 23.917L19.5672 23.9168C19.5909 23.9007 19.6145 23.8847 19.6373 23.8695C19.7161 23.8146 19.7979 23.7639 19.8821 23.7177C19.9153 23.7012 19.9422 23.6807 19.969 23.6603C19.9897 23.6445 20.0104 23.6288 20.0339 23.6149C20.0878 23.5831 20.1685 23.5342 20.2322 23.4925L20.428 23.3628L20.6361 23.2404C20.6978 23.2004 20.7615 23.1637 20.827 23.1302C20.8891 23.0951 20.9488 23.0558 21.0057 23.0127C21.0241 23.0005 21.0443 22.9901 21.0645 22.9797C21.0847 22.9693 21.1049 22.9589 21.1232 22.9467C21.1547 22.9257 21.1898 22.8992 21.2239 22.8736L21.2407 22.861H21.0987H20.898L20.685 22.8806H20.6361L20.3693 22.8928L19.9409 22.9173L19.6961 22.9369L19.4513 22.954L19.2799 22.9662L18.9984 22.9834L18.6753 23.0078H18.5627L18.198 23.0372L17.9997 23.0495L17.6986 23.0813C17.6645 23.0856 17.6291 23.0896 17.5936 23.0935L17.5936 23.0935L17.5936 23.0935L17.5936 23.0935L17.5936 23.0935C17.5092 23.1029 17.4241 23.1123 17.3534 23.1278C17.2155 23.1497 17.0818 23.1926 16.9569 23.2551C16.9344 23.268 16.9093 23.2756 16.8834 23.2771C16.8574 23.2769 16.8319 23.2693 16.81 23.2551C16.7659 23.2135 16.7708 23.1596 16.8541 23.1327C16.9373 23.1058 17.0548 23.0739 17.1552 23.047C17.1992 23.047 17.2506 23.047 17.2947 23.0274C17.4505 22.994 17.6083 22.9703 17.7671 22.9564L18.0388 22.932L18.3228 22.9075H18.4942L18.9837 22.8806C19.0677 22.8806 19.1506 22.871 19.2338 22.8615L19.2338 22.8615C19.2841 22.8558 19.3345 22.85 19.3852 22.8463L19.7475 22.8096L20.1049 22.79L20.5308 22.7655L21.0669 22.7337C21.2016 22.7337 21.3362 22.7214 21.4684 22.7068C21.5094 22.6988 21.5484 22.683 21.5834 22.6602L21.8821 22.4962L22.1024 22.3665L22.308 22.2539L22.5234 22.1388L22.8539 21.9626L23.1746 21.8084L23.5099 21.6542L23.7254 21.5538L23.9481 21.4608C23.9775 21.4471 24.006 21.433 24.0344 21.419L24.0344 21.419C24.0771 21.3979 24.1194 21.3771 24.1635 21.358C24.1894 21.3467 24.2183 21.3346 24.2481 21.3221L24.2481 21.3221C24.3029 21.2991 24.3608 21.2749 24.4083 21.2527L24.5528 21.1964L24.7021 21.1401L25.0203 21.0201C25.0423 21.0128 25.065 21.0061 25.0876 20.9993C25.1103 20.9926 25.1329 20.9859 25.1549 20.9785C25.177 20.9712 25.1984 20.962 25.2198 20.9528C25.2412 20.9436 25.2627 20.9345 25.2847 20.9271L25.718 20.79C25.7744 20.7727 25.8316 20.7579 25.8887 20.7432C25.9282 20.7329 25.9677 20.7227 26.0068 20.7117L26.0942 20.6877C26.2268 20.6512 26.3599 20.6145 26.4964 20.5844C26.6629 20.5477 26.8195 20.5232 26.986 20.4987C27.1524 20.4743 27.2871 20.462 27.4413 20.4498C27.5456 20.4415 27.6208 20.4444 27.6918 20.4472C27.7258 20.4485 27.7589 20.4498 27.7938 20.4498H27.8379H27.9015L28.0949 20.4645C28.1634 20.4645 28.2295 20.4645 28.2956 20.4865L28.609 20.5452L28.6604 20.5575L28.7632 20.5918L28.9566 20.675C29.0003 20.6924 29.0429 20.7129 29.0839 20.7362C29.1237 20.7615 29.1606 20.791 29.194 20.8243C29.249 20.8688 29.2912 20.9271 29.3164 20.9932C29.346 21.0881 29.346 21.1897 29.3164 21.2845C29.2926 21.3283 29.2664 21.3708 29.2381 21.4118C29.2089 21.4688 29.166 21.5176 29.1132 21.5538C29.0363 21.6137 28.9544 21.6669 28.8684 21.7129C28.749 21.771 28.6264 21.8225 28.5012 21.8671C28.428 21.8938 28.3514 21.9159 28.2744 21.9381L28.2744 21.9381L28.2744 21.9381L28.2743 21.9381L28.2743 21.9381C28.2381 21.9485 28.2019 21.959 28.1659 21.9699L27.877 22.0483L27.713 22.0825L27.6214 22.1053L27.6214 22.1053C27.5221 22.1301 27.4224 22.155 27.3214 22.1756C27.2204 22.1961 27.0823 22.221 26.9507 22.2447L26.8318 22.2661L26.5013 22.3249L25.9677 22.4081C25.9359 22.4129 25.9039 22.4185 25.8717 22.424C25.8219 22.4327 25.7719 22.4413 25.7229 22.4473L25.3606 22.4889L25.1403 22.5183L24.7094 22.5648L24.5209 22.5917L24.3814 22.6064L24.188 22.626H24.0534L23.8257 22.6456L23.5002 22.6676L23.297 22.6872L23.0987 22.7043L22.6581 22.7435L22.4402 22.7655L21.9751 22.8022H21.9335C21.8947 22.794 21.8547 22.794 21.816 22.8022C21.759 22.8157 21.7007 22.8222 21.6422 22.8218C21.5876 22.8234 21.5348 22.8413 21.4904 22.8732C21.3925 22.9271 21.2946 22.9809 21.2016 23.0397C21.152 23.071 21.1157 23.0967 21.0815 23.1209C21.0514 23.1422 21.0229 23.1624 20.9886 23.1841C20.9423 23.2134 20.897 23.2398 20.8514 23.2664L20.8513 23.2664L20.8513 23.2664C20.8246 23.282 20.7978 23.2976 20.7707 23.3138L20.6459 23.3971C20.6094 23.4194 20.5718 23.4398 20.5333 23.4583C20.4246 23.5062 20.3226 23.5679 20.2297 23.6419C20.182 23.6761 20.1321 23.7071 20.0804 23.7349L19.9605 23.8157L19.6692 24.0017L19.5345 24.0947C19.4831 24.129 19.4317 24.1608 19.3779 24.1926C19.3223 24.2248 19.265 24.2552 19.208 24.2855L19.208 24.2855L19.208 24.2855L19.2079 24.2855L19.2079 24.2855L19.2079 24.2855L19.2078 24.2856C19.1695 24.3059 19.1313 24.3262 19.0939 24.3469C19.0271 24.3837 18.9944 24.4068 18.9596 24.4313C18.9458 24.441 18.9318 24.4509 18.9152 24.4619C18.8778 24.4868 18.8662 24.4909 18.8564 24.4944C18.8508 24.4964 18.8458 24.4982 18.8369 24.5035C18.7995 24.5282 18.7643 24.5561 18.7316 24.5868C18.7316 24.5868 18.7316 24.621 18.7561 24.6259C18.8284 24.6526 18.9043 24.6683 18.9813 24.6724C19.1042 24.6842 19.228 24.6842 19.3509 24.6724C19.4244 24.6724 19.5003 24.6724 19.5761 24.6577C19.6346 24.6464 19.6873 24.6395 19.7408 24.6324L19.7891 24.6259L20.1122 24.5794L20.2444 24.5549L20.3742 24.5305C20.4552 24.5244 20.5334 24.4984 20.6018 24.4546C20.6659 24.4086 20.733 24.3669 20.8025 24.3297C20.8637 24.2955 20.9298 24.2636 20.9959 24.2343C21.0574 24.2025 21.1212 24.1755 21.1869 24.1535C21.2567 24.1228 21.3312 24.1038 21.4072 24.0972C21.4632 24.0907 21.5183 24.0776 21.5712 24.058H21.6079C21.6405 24.058 21.6732 24.0498 21.7063 24.0414C21.7303 24.0354 21.7546 24.0293 21.7793 24.0262C21.8183 24.0213 21.8659 24.0229 21.9143 24.0245C21.9388 24.0254 21.9635 24.0262 21.9873 24.0262C21.9873 24.0262 22.0045 24.0262 22.0069 24.0433C22.029 24.1021 21.9898 24.1461 21.9115 24.1731C21.8643 24.1893 21.8366 24.2037 21.8103 24.2175C21.793 24.2265 21.7762 24.2353 21.7548 24.244L21.6275 24.2979L21.3019 24.4252C21.2836 24.4325 21.2664 24.4405 21.2493 24.4485L21.2493 24.4485C21.2321 24.4564 21.215 24.4644 21.1967 24.4717L20.9959 24.5402L20.6997 24.6333C20.6663 24.6462 20.6343 24.6626 20.6043 24.6822C20.6043 24.6822 20.592 24.7018 20.6043 24.7067C20.6154 24.7103 20.6274 24.7103 20.6385 24.7067C20.7279 24.7057 20.8167 24.6934 20.9029 24.67C20.9325 24.6632 20.9621 24.6566 20.9916 24.65L20.9917 24.65L20.9917 24.65L20.9917 24.65C21.0574 24.6353 21.1227 24.6208 21.1869 24.6039C21.2307 24.5924 21.2757 24.5792 21.3209 24.5659L21.3209 24.5659C21.3717 24.551 21.4228 24.536 21.4733 24.5231C21.5284 24.509 21.5705 24.5014 21.6104 24.4942L21.6104 24.4942C21.6395 24.4889 21.6675 24.4838 21.6985 24.4766C21.7474 24.4652 21.7703 24.4559 21.7931 24.4467C21.8046 24.4421 21.816 24.4374 21.8307 24.4325L21.8992 24.413L22.144 24.3273C22.1975 24.3273 22.2387 24.3096 22.2809 24.2915C22.3141 24.2772 22.3479 24.2627 22.3888 24.2563C22.4335 24.2452 22.477 24.2297 22.5185 24.2098H22.5357C22.5941 24.2098 22.6342 24.1883 22.6746 24.1667C22.6951 24.1556 22.7157 24.1446 22.7389 24.1363L22.8441 24.1021C22.8712 24.0921 22.898 24.0812 22.9249 24.0702C22.9707 24.0515 23.0166 24.0327 23.0644 24.0188C23.1393 23.9962 23.2153 23.9774 23.2921 23.9625C23.3099 23.9636 23.3265 23.9715 23.3386 23.9846C23.3571 24.0025 23.3676 24.0273 23.3676 24.0531C23.3676 24.0789 23.3571 24.1037 23.3386 24.1217C23.3155 24.143 23.2879 24.1589 23.2578 24.1682C23.1301 24.2189 23.0065 24.2794 22.8882 24.3493C22.8099 24.3957 22.728 24.4358 22.6434 24.4693C22.6028 24.4872 22.5643 24.5094 22.5283 24.5354L22.7731 24.4913C22.8872 24.4688 23.0014 24.4451 23.1172 24.421L23.1172 24.421L23.1173 24.421L23.1173 24.421L23.2627 24.3909C23.3769 24.3669 23.4896 24.3366 23.6005 24.3003C23.6729 24.269 23.7433 24.233 23.811 24.1926L24.0705 24.0702L24.1954 24.0188L24.3814 23.9332C24.4142 23.9189 24.447 23.9048 24.4798 23.8908L24.4799 23.8908L24.4799 23.8907C24.5595 23.8566 24.6388 23.8227 24.7168 23.7863C24.8269 23.7349 24.9616 23.6688 25.0889 23.6051C25.2504 23.5195 25.4095 23.4289 25.5662 23.3383C25.6054 23.3151 25.6433 23.2906 25.6813 23.2661C25.7192 23.2416 25.7571 23.2171 25.7963 23.1939C25.8746 23.1474 26.0044 23.0739 26.1121 23.0176C26.1493 23.0008 26.189 22.9901 26.2296 22.9858C26.2529 22.9842 26.2761 22.9902 26.2957 23.003C26.3569 23.0495 26.3593 23.0886 26.2957 23.1474C26.2191 23.2202 26.1373 23.2873 26.0509 23.3481C25.9485 23.4127 25.8413 23.4691 25.7302 23.517C25.6445 23.5553 25.5552 23.59 25.4662 23.6245L25.4662 23.6245C25.39 23.6542 25.314 23.6837 25.2406 23.7153C25.1305 23.7618 25.0203 23.8132 24.915 23.8646C24.8562 23.8934 24.7821 23.9313 24.705 23.9707L24.705 23.9707C24.6442 24.0018 24.5817 24.0338 24.5234 24.0629L24.1978 24.2294L24.0999 24.2734L24.056 24.2919L24.056 24.2919L24.056 24.2919C24.0062 24.3128 23.9556 24.334 23.9065 24.3567C23.8383 24.3867 23.7721 24.421 23.7082 24.4595C23.6567 24.497 23.6076 24.5379 23.5614 24.5819C23.6368 24.6018 23.716 24.6018 23.7915 24.5819L24.0362 24.5354L24.1537 24.479L24.2639 24.4546C24.277 24.4546 24.2878 24.448 24.2987 24.4415C24.3042 24.4382 24.3096 24.435 24.3153 24.4325L24.7927 24.2808C24.8139 24.2742 24.8354 24.268 24.8568 24.2617L24.8569 24.2617C24.8998 24.2492 24.9428 24.2367 24.9836 24.222L25.4316 24.058C25.4784 24.0407 25.524 24.0208 25.5693 24.0012C25.5879 23.9931 25.6064 23.9851 25.6249 23.9772C25.6886 23.9503 25.8036 23.9772 25.8085 24.036C25.8134 24.0947 25.789 24.1314 25.7008 24.1559C25.5898 24.1869 25.4823 24.2296 25.3802 24.2832C25.3386 24.3046 25.2939 24.3227 25.2506 24.3403C25.2096 24.357 25.1699 24.3731 25.1354 24.3909L25.0686 24.4252C25.0228 24.4487 24.9786 24.4713 24.9322 24.4962C24.9322 24.4962 24.9322 24.5084 24.9102 24.5207H25.0056H25.177H25.2871H25.6764H25.953L26.1978 24.5035C26.2443 24.5035 26.2418 24.4888 26.2296 24.4668C26.2173 24.4448 26.2296 24.3885 26.2908 24.3567C26.3204 24.3485 26.3517 24.3485 26.3814 24.3567C26.4439 24.3656 26.5073 24.3656 26.5698 24.3567C26.6491 24.3567 26.7283 24.346 26.8064 24.3354C26.8272 24.3326 26.8479 24.3299 26.8685 24.3273L27.0864 24.293C27.1348 24.293 27.1832 24.284 27.2301 24.2752L27.2528 24.271C27.3181 24.2623 27.379 24.2332 27.4266 24.1877C27.4705 24.148 27.52 24.115 27.5735 24.0898C27.6394 24.055 27.7072 24.024 27.7767 23.9968C27.8293 23.9721 27.8877 23.962 27.9456 23.9674C27.9847 23.9674 28.0312 24.0042 28.0312 24.0335C28.0336 24.0498 28.0336 24.0662 28.0312 24.0825C28.027 24.1068 28.0149 24.1291 27.997 24.1461C27.9733 24.1627 27.9463 24.1775 27.9189 24.1925L27.9189 24.1925L27.9188 24.1926C27.8894 24.2087 27.8596 24.2251 27.833 24.244C27.7943 24.2699 27.7523 24.2905 27.7081 24.3052C27.6909 24.3117 27.6731 24.3172 27.6558 24.3226C27.6337 24.3295 27.6122 24.3362 27.5931 24.3444C27.5502 24.3649 27.5085 24.3878 27.4682 24.413C27.4682 24.413 27.456 24.435 27.4682 24.4374C27.4819 24.4409 27.4962 24.4409 27.5098 24.4374H27.7081H28.019H28.1096H28.3103H28.5992H28.653H28.7411H29.008H29.1426H29.4902H29.8892H30.3788C30.5018 24.4374 30.612 24.4474 30.7246 24.4575L30.7246 24.4575C30.7599 24.4607 30.7954 24.4639 30.8317 24.4668C30.9455 24.476 31.0263 24.4852 31.1071 24.4943L31.1891 24.5035L31.473 24.5402L31.7545 24.5843L32.0654 24.6382C32.156 24.6553 32.2441 24.6773 32.3298 24.6994L32.5746 24.7606C32.6152 24.7731 32.6549 24.7865 32.6944 24.7998L32.6944 24.7998L32.6945 24.7999C32.724 24.8098 32.7533 24.8197 32.7827 24.8291L32.8659 24.8585L33.0446 24.9319L33.0672 24.9413C33.1189 24.9627 33.1717 24.9846 33.2208 25.0102C33.2506 25.0278 33.2784 25.0483 33.3041 25.0714C33.3737 25.1218 33.4407 25.1757 33.5048 25.233C33.5497 25.2834 33.5914 25.3365 33.6296 25.3921C33.6755 25.4595 33.7018 25.5383 33.7055 25.6198V25.7618C33.6984 25.7817 33.6902 25.8013 33.681 25.8205C33.6681 25.8521 33.6508 25.8818 33.6296 25.9086C33.5464 25.9968 33.4607 26.0841 33.3726 26.1706C33.3348 26.2081 33.292 26.2403 33.2453 26.266C33.1265 26.3394 33.0021 26.4032 32.8732 26.457C32.7223 26.513 32.5654 26.5516 32.4057 26.572C32.2512 26.5975 32.0947 26.609 31.9381 26.6063C31.7784 26.6063 31.6164 26.5883 31.4673 26.5717L31.4485 26.5696C31.3711 26.5696 31.2948 26.5526 31.2189 26.5357C31.1869 26.5286 31.1549 26.5215 31.123 26.5157C31.0783 26.5068 31.0342 26.4953 30.9908 26.4814C30.9683 26.4773 30.9485 26.4644 30.9356 26.4455C30.9228 26.4267 30.9179 26.4035 30.9222 26.3811C30.9222 26.3419 30.959 26.3076 31.0226 26.2979C31.0552 26.2951 31.0879 26.2951 31.1205 26.2979H31.3531C31.3709 26.3004 31.3874 26.3091 31.3996 26.3223C31.3996 26.3223 31.3824 26.3419 31.3751 26.3517L31.3713 26.3566C31.3648 26.3648 31.3584 26.3729 31.3604 26.3811C31.3671 26.3929 31.3788 26.4011 31.3922 26.4031L31.637 26.4325H31.7545C31.8146 26.4325 31.8747 26.4369 31.9348 26.4412C31.9849 26.4449 32.0349 26.4485 32.085 26.4496C32.1465 26.4479 32.2078 26.4422 32.2686 26.4325L32.5477 26.3958C32.5815 26.3958 32.6153 26.3854 32.6491 26.3751C32.6618 26.3712 32.6745 26.3673 32.6872 26.3639L32.8439 26.3199C32.8625 26.3115 32.8805 26.3017 32.8977 26.2905L32.9663 26.1926C33.0619 26.145 33.1508 26.0849 33.2306 26.0139C33.2437 26.0019 33.2587 25.9904 33.2739 25.9788L33.274 25.9787C33.2929 25.9642 33.3122 25.9494 33.3285 25.9331C33.3822 25.8901 33.4278 25.8379 33.4632 25.7789C33.4632 25.7584 33.4678 25.7382 33.4725 25.7181C33.4817 25.6781 33.4909 25.6385 33.4632 25.5977C33.459 25.5825 33.459 25.5665 33.4632 25.5512C33.4632 25.5099 33.4407 25.4751 33.4181 25.4401C33.4099 25.4275 33.4018 25.4149 33.3946 25.4019C33.3811 25.3816 33.3646 25.3635 33.3457 25.3481C33.2844 25.2773 33.2136 25.2155 33.1352 25.1645L33.1083 25.1505C33.0555 25.1233 33.0018 25.0955 32.9516 25.0641C32.8136 24.9918 32.6684 24.9344 32.5183 24.8927H32.5011C32.4766 24.8633 32.4356 24.8557 32.3944 24.8481C32.3739 24.8443 32.3534 24.8405 32.3347 24.834C32.2543 24.8089 32.1726 24.7884 32.0899 24.7728C32.0616 24.7657 32.0321 24.7607 32.0027 24.7558C31.9608 24.7487 31.9192 24.7417 31.8818 24.7287C31.7623 24.7029 31.6413 24.6841 31.5195 24.6724C31.3857 24.6432 31.2499 24.6244 31.1132 24.6161C30.9994 24.6161 30.8875 24.6002 30.7752 24.5843C30.7111 24.5752 30.6469 24.5661 30.582 24.5598H30.3372C30.2455 24.5581 30.154 24.5516 30.063 24.5402C30.0182 24.5368 29.9732 24.5368 29.9284 24.5402H29.7105H29.2503H28.7607H28.5429H28.3421L27.9994 24.5525L27.6812 24.5647C27.638 24.5647 27.5948 24.5715 27.5524 24.5781L27.5524 24.5781C27.5323 24.5813 27.5124 24.5844 27.4927 24.5868H27.4535C27.4183 24.5868 27.3891 24.595 27.36 24.6032C27.3366 24.6098 27.3133 24.6164 27.2871 24.6186C27.2602 24.6205 27.2332 24.6205 27.2063 24.6186C27.177 24.6168 27.1475 24.6168 27.1182 24.6186L26.6286 24.6431L26.2149 24.6724L25.9481 24.6871H25.7351H25.5515L25.1892 24.7043H25.0203H24.7755C24.747 24.7059 24.7184 24.7059 24.6898 24.7043H24.6531C24.6017 24.7043 24.5797 24.7043 24.5674 24.6626C24.5535 24.6163 24.5578 24.5663 24.5797 24.5231L24.4916 24.5525C24.3311 24.6082 24.1677 24.6548 24.002 24.692C23.9535 24.7011 23.9059 24.713 23.8587 24.7248L23.8587 24.7248L23.8587 24.7249L23.8586 24.7249C23.8296 24.7321 23.8007 24.7394 23.7719 24.7459C23.7376 24.7459 23.6984 24.7459 23.6617 24.763C23.5756 24.7751 23.4883 24.7751 23.4022 24.763C23.3508 24.763 23.3215 24.7336 23.3141 24.7067C23.3092 24.6652 23.3092 24.6233 23.3141 24.5819V24.5329H23.2505L22.871 24.6137L22.8196 24.6252C22.7587 24.6391 22.6969 24.6531 22.6262 24.6626L22.2566 24.7189C22.2174 24.7248 22.1783 24.7315 22.1391 24.7381C22.0804 24.7481 22.0216 24.7581 21.9629 24.7655C21.8452 24.7898 21.7256 24.8029 21.6055 24.8046H21.581C21.581 24.8046 21.5394 24.7434 21.5222 24.7116C21.5204 24.6994 21.5204 24.687 21.5222 24.6749H21.4586L21.3093 24.7092C21.2526 24.7242 21.1962 24.7394 21.1402 24.7546L21.14 24.7547C21.0316 24.7841 20.9246 24.8131 20.8197 24.8389C20.731 24.8581 20.641 24.8704 20.5504 24.8756C20.5025 24.8749 20.4548 24.8683 20.4084 24.856C20.3962 24.8528 20.3856 24.8449 20.3791 24.834C20.3509 24.8016 20.3368 24.7593 20.3399 24.7165C20.3399 24.6896 20.3228 24.6773 20.2885 24.6896C20.1835 24.7184 20.0762 24.7381 19.9678 24.7483L19.6765 24.7997H19.5835L19.3656 24.8193C19.3174 24.8193 19.2698 24.8249 19.2222 24.8304C19.1804 24.8353 19.1387 24.8402 19.0963 24.8413C19.0362 24.843 18.9846 24.8424 18.9324 24.8419H18.9324H18.9324H18.9323C18.906 24.8416 18.8795 24.8413 18.8516 24.8413C18.7444 24.8318 18.6411 24.7965 18.5505 24.7385C18.5258 24.7303 18.4992 24.7303 18.4746 24.7385C18.4501 24.7508 18.4281 24.7648 18.406 24.7789L18.406 24.7789L18.406 24.7789C18.384 24.793 18.362 24.8071 18.3375 24.8193C18.2917 24.8417 18.2455 24.8632 18.1992 24.8848L18.1992 24.8848C18.1341 24.9151 18.0689 24.9455 18.0046 24.9784C17.9681 24.9967 17.9336 25.017 17.8994 25.0372L17.8994 25.0372L17.8994 25.0373L17.8994 25.0373C17.8694 25.055 17.8396 25.0726 17.8087 25.0886L17.6447 25.1718C17.6271 25.1817 17.6109 25.1922 17.5947 25.2026L17.5947 25.2026C17.5749 25.2154 17.555 25.2282 17.5321 25.2404C17.4342 25.2918 17.3363 25.3407 17.2359 25.3897C17.178 25.4179 17.112 25.4461 17.0449 25.4749L17.0449 25.4749L17.0449 25.4749C16.9956 25.4959 16.9458 25.5172 16.8981 25.539C16.8869 25.5463 16.877 25.5554 16.8687 25.5659C16.8812 25.5736 16.8943 25.5802 16.9079 25.5855L17.3632 25.7226C17.3981 25.7335 17.4316 25.7459 17.4649 25.7582L17.4649 25.7582L17.4649 25.7582C17.5063 25.7735 17.5475 25.7887 17.5909 25.8009C17.6304 25.812 17.6817 25.8238 17.7358 25.8361C17.7889 25.8483 17.8447 25.861 17.8944 25.8744C17.9475 25.8886 18.0163 25.9097 18.0886 25.9318L18.0886 25.9318L18.0886 25.9318C18.153 25.9516 18.2201 25.9721 18.2812 25.9894C18.3253 26.0017 18.3699 26.0121 18.4146 26.0225C18.4593 26.0329 18.504 26.0433 18.548 26.0555C18.5794 26.063 18.609 26.0732 18.6385 26.0834L18.6385 26.0834L18.6385 26.0834L18.6385 26.0834L18.6385 26.0834C18.6572 26.0899 18.6759 26.0963 18.6949 26.102L19.0131 26.1926L19.1796 26.2367C19.2726 26.2653 19.3675 26.2874 19.4635 26.3027C19.5159 26.3128 19.5675 26.3267 19.6178 26.3444C19.6411 26.3497 19.6654 26.3497 19.6887 26.3444C19.7671 26.3223 19.843 26.2954 19.9164 26.2685L20.1612 26.1779L20.5382 26.0457L20.8833 25.9282L21.3142 25.796L21.5198 25.7299L21.7401 25.6687L22.0094 25.6051L22.286 25.5365L22.5308 25.4827L22.6287 25.4631L23.0669 25.3774C23.2089 25.353 23.3508 25.3309 23.4928 25.3089L23.8649 25.2599C23.9873 25.2428 24.1097 25.2257 24.2321 25.2134C24.3545 25.2012 24.5356 25.1865 24.6874 25.1767C24.7927 25.1767 24.8979 25.1767 25.0032 25.162L25.4414 25.14H25.5686H25.6617H26.0582H26.1121L26.4426 25.1522C26.5627 25.1522 26.681 25.1654 26.7991 25.1785L26.8489 25.184C26.9769 25.198 27.1027 25.2186 27.2305 25.2395L27.2504 25.2428L27.323 25.2546C27.4179 25.2699 27.4885 25.2813 27.5735 25.2991C27.6326 25.3115 27.6747 25.3223 27.7159 25.3329C27.748 25.3411 27.7796 25.3493 27.8183 25.3579C27.9064 25.3774 27.9847 25.3995 28.0631 25.4239C28.1238 25.4429 28.1683 25.4604 28.2149 25.4787L28.2149 25.4787L28.2565 25.4949C28.3728 25.5352 28.4837 25.5894 28.5869 25.6565C28.6668 25.7096 28.7372 25.7758 28.795 25.8523C28.8513 25.9279 28.8806 26.0201 28.8782 26.1143C28.878 26.183 28.8681 26.2514 28.8489 26.3174C28.8248 26.3862 28.7825 26.4471 28.7265 26.4937L28.702 26.5162C28.6518 26.5625 28.6022 26.6082 28.5453 26.6504C28.4941 26.6885 28.4392 26.7213 28.3813 26.7483L28.3769 26.7503C28.2583 26.806 28.135 26.8639 28.0117 26.9098C27.9219 26.9433 27.8346 26.9691 27.7454 26.9956L27.7453 26.9956C27.7105 27.0059 27.6753 27.0163 27.6396 27.0273C27.6297 27.0273 27.6207 27.033 27.6115 27.0388L27.6115 27.0388C27.6047 27.043 27.5979 27.0473 27.5906 27.0494L27.4682 27.0787L27.1598 27.1326C27.1084 27.1326 27.057 27.1409 27.0056 27.1491C26.9884 27.1519 26.9713 27.1546 26.9542 27.1571C26.9395 27.1571 26.9248 27.1614 26.9101 27.1658C26.8979 27.1695 26.8856 27.1731 26.8734 27.1742L26.5233 27.2109L26.2345 27.2354H26.0852L25.7571 27.2476H25.5295H25.1794H24.9346L24.2957 27.2134L24.0509 27.2011L23.6495 27.1693L23.2333 27.1277L22.9885 27.1008L22.7437 27.0665L22.499 27.0347L22.2248 26.9955L21.8943 26.9465C21.8712 26.9465 21.8497 26.9388 21.828 26.931C21.8129 26.9256 21.7977 26.9202 21.7817 26.9172L21.5002 26.8731C21.454 26.8647 21.4086 26.8547 21.3621 26.8445L21.3621 26.8445C21.3274 26.8368 21.2921 26.829 21.2554 26.8217L20.9715 26.7825L20.2371 26.6136L19.8944 26.5402L19.7328 26.501C19.7152 26.4964 19.6966 26.4964 19.679 26.501L19.5052 26.5843L19.2873 26.6969L19.0425 26.8144C19.0119 26.8304 18.9812 26.8462 18.9507 26.862L18.9506 26.862C18.8737 26.9017 18.7971 26.9412 18.7218 26.9833C18.6691 27.0127 18.6166 27.0424 18.5646 27.0719L18.5646 27.0719L18.5646 27.0719L18.5646 27.0719C18.4693 27.1258 18.3755 27.179 18.2836 27.2281C18.2336 27.2587 18.189 27.2925 18.1447 27.326L18.1447 27.3261L18.1447 27.3261L18.1446 27.3261C18.1217 27.3434 18.0989 27.3607 18.0756 27.3774L17.7696 27.6222C17.7488 27.6381 17.7304 27.6546 17.7121 27.6711C17.6937 27.6877 17.6753 27.7042 17.6545 27.7201C17.6423 27.7295 17.6268 27.7405 17.6099 27.7527L17.6099 27.7527C17.5693 27.7818 17.5202 27.817 17.4856 27.8498C17.4532 27.8806 17.4154 27.9211 17.3772 27.962L17.3772 27.962L17.3771 27.9621L17.3771 27.9621C17.3577 27.9829 17.3382 28.0038 17.3192 28.0236L17.2286 28.1142C17.2075 28.1374 17.1878 28.1619 17.1698 28.1876L17.1385 28.2312C17.0994 28.2853 17.0601 28.3398 17.0254 28.3957C16.9813 28.4667 16.903 28.594 16.8467 28.6944C16.797 28.7842 16.7631 28.8819 16.7463 28.9832C16.735 29.0562 16.7277 29.1297 16.7243 29.2035C16.7218 29.2451 16.7218 29.2868 16.7243 29.3284C16.7285 29.3588 16.7342 29.3891 16.7415 29.4189C16.7429 29.441 16.7429 29.463 16.7415 29.485L16.7194 29.4973ZM26.6947 27.0493H26.7314L26.964 27.0126C27.1519 26.9894 27.3382 26.955 27.5221 26.9098L27.7669 26.8437L27.9235 26.7923C27.9627 26.7776 27.9994 26.7605 28.0361 26.7434C28.0469 26.7383 28.0631 26.7311 28.082 26.7227L28.0821 26.7227L28.0821 26.7227C28.1275 26.7025 28.1888 26.6752 28.232 26.6528C28.2796 26.628 28.3213 26.6003 28.3639 26.5719L28.4009 26.5475C28.4525 26.5147 28.5009 26.477 28.5453 26.4349C28.6003 26.3844 28.6437 26.3226 28.6726 26.2538C28.6906 26.1947 28.6906 26.1317 28.6726 26.0726C28.6619 26.0305 28.6436 25.9907 28.6187 25.9551C28.577 25.8897 28.5304 25.8275 28.4792 25.7691C28.4431 25.7355 28.4028 25.7067 28.3593 25.6834C28.3019 25.6455 28.2422 25.6111 28.1806 25.5806C28.1238 25.5541 28.0612 25.532 27.9949 25.5086C27.9755 25.5018 27.9558 25.4948 27.9358 25.4876C27.9042 25.4713 27.8715 25.4573 27.8379 25.446L27.4315 25.3578L27.3906 25.3486C27.3374 25.3364 27.2828 25.324 27.2283 25.3162L26.6653 25.2477C26.6146 25.2477 26.5638 25.2433 26.5131 25.2389C26.4708 25.2353 26.4285 25.2317 26.3862 25.2305H26.0778H25.8967H25.4658L25.0717 25.2428H24.9469L24.7168 25.2624L24.4328 25.2844C24.3848 25.2844 24.3368 25.2927 24.2866 25.3013C24.2548 25.3068 24.2221 25.3124 24.188 25.3162L23.6984 25.3823C23.6547 25.3823 23.6121 25.393 23.5691 25.4038C23.5471 25.4093 23.525 25.4149 23.5026 25.419C23.4573 25.4225 23.4123 25.429 23.368 25.4386C23.2653 25.4723 23.1565 25.4903 23.0479 25.5081L23.0479 25.5081L23.0479 25.5081C22.9752 25.5201 22.9025 25.5321 22.8319 25.5488C22.7299 25.5728 22.6312 25.592 22.5335 25.611L22.5335 25.611L22.5335 25.611L22.5335 25.611L22.5334 25.611C22.4622 25.6248 22.3914 25.6386 22.3203 25.654C22.1514 25.6908 21.98 25.7348 21.8135 25.7789C21.7203 25.8026 21.6299 25.8291 21.5371 25.8563L21.4415 25.8841L21.2677 25.9404L20.8735 26.0677L20.4011 26.2293L19.9115 26.3909C19.9017 26.394 19.8938 26.4011 19.8895 26.4104C19.8895 26.4104 19.9017 26.4104 19.9115 26.4227L20.2665 26.5035L20.5112 26.5549C20.5423 26.5619 20.573 26.5697 20.6035 26.5775L20.6035 26.5775C20.6477 26.5888 20.6916 26.6 20.7365 26.6087L21.2701 26.7115C21.3467 26.7258 21.4238 26.7405 21.5011 26.7552L21.5012 26.7553C21.5969 26.7735 21.693 26.7919 21.7891 26.8095C21.8981 26.8333 22.0084 26.8505 22.1195 26.8609C22.1527 26.8609 22.1858 26.8683 22.219 26.8757L22.219 26.8757C22.2397 26.8803 22.2604 26.885 22.2811 26.8878L22.6556 26.9392L22.9004 26.9637L23.1697 27.0004H23.2162L23.5491 27.0273L23.8208 27.0567L24.0411 27.0714L24.4402 27.0959L24.8416 27.113L25.1231 27.1252H25.4707H25.8648C25.9611 27.1252 26.0378 27.1175 26.1168 27.1094L26.1169 27.1094C26.1464 27.1064 26.1762 27.1034 26.2075 27.1008L26.5821 27.064L26.6947 27.0493ZM21.9041 22.6799H21.8576C21.8856 22.6554 21.9151 22.6325 21.9457 22.6113L22.144 22.5085C22.2077 22.4767 22.2688 22.4424 22.3276 22.4057L22.5112 22.2857C22.5283 22.2738 22.549 22.2642 22.5699 22.2545L22.5699 22.2545C22.579 22.2503 22.588 22.2461 22.5969 22.2417L22.6801 22.1952L22.756 22.1585L22.8808 22.0973L23.2505 21.9235L23.5809 21.7717L23.9481 21.6003L24.2198 21.473L24.5087 21.3482C24.5507 21.3311 24.5936 21.316 24.6363 21.3009L24.6363 21.3009L24.6363 21.3009C24.6609 21.2923 24.6853 21.2837 24.7094 21.2748L25.0423 21.1548C25.087 21.1396 25.1313 21.1237 25.1756 21.1077L25.1756 21.1077L25.1757 21.1077C25.2456 21.0825 25.3156 21.0573 25.3875 21.0349C25.576 20.9737 25.7645 20.9149 25.9554 20.8586C26.0185 20.8389 26.088 20.8213 26.1552 20.8043C26.213 20.7896 26.269 20.7754 26.3177 20.7607C26.423 20.7289 26.5307 20.7068 26.6408 20.6848C26.7922 20.655 26.9758 20.6273 27.1051 20.6078L27.1051 20.6078L27.1051 20.6078L27.1304 20.604C27.2601 20.5844 27.3948 20.5698 27.5294 20.5698H27.7889L27.7918 20.5699C27.9255 20.5747 28.0616 20.5797 28.1953 20.5967C28.3126 20.6113 28.4287 20.6342 28.5429 20.6652C28.6504 20.6905 28.7542 20.73 28.8513 20.7827C28.9184 20.8122 28.9823 20.8483 29.0422 20.8904C29.0751 20.9179 29.1047 20.9491 29.1304 20.9835C29.1793 21.0618 29.2062 21.1695 29.1671 21.2282C29.1506 21.2529 29.135 21.278 29.1194 21.3032C29.0978 21.338 29.0762 21.3729 29.052 21.4069C29.0293 21.4343 29.0019 21.4575 28.9712 21.4755C28.8786 21.5391 28.7792 21.5924 28.675 21.6346C28.6111 21.6571 28.5574 21.6795 28.5031 21.7022C28.4391 21.729 28.3742 21.7561 28.2907 21.7839C28.1879 21.8182 28.0829 21.8481 27.9779 21.878C27.9254 21.893 27.8729 21.908 27.8207 21.9235C27.8031 21.9283 27.7875 21.9336 27.7716 21.939C27.7477 21.947 27.7233 21.9553 27.691 21.9626L27.6679 21.968C27.6217 21.9788 27.5756 21.9895 27.5294 21.9895L27.336 22.0312L27.0668 22.1144L26.822 22.1609L26.6653 22.1854L26.2785 22.249L25.9995 22.2857L25.7547 22.3249L25.3826 22.3714C25.3622 22.3736 25.3423 22.3785 25.3226 22.3834C25.2974 22.3897 25.2727 22.3959 25.248 22.3959H25.1452L24.8416 22.4302H24.7535L24.543 22.4498L24.2468 22.4791L24.0607 22.5061L23.8159 22.5281L23.3753 22.5648H23.2749L22.9861 22.5893L22.6507 22.6187L22.4206 22.6334L22.2272 22.6554H22.2003L21.9041 22.6799ZM16.4502 25.5806C16.3345 25.5542 16.2214 25.5173 16.1124 25.4705C16.1011 25.4674 16.0893 25.4674 16.0781 25.4705C15.9951 25.4729 15.9124 25.4614 15.8333 25.4362C15.7692 25.425 15.7062 25.4096 15.6429 25.3941C15.6094 25.3859 15.5759 25.3777 15.542 25.3701C15.4107 25.3346 15.2775 25.3068 15.143 25.2869C15.0678 25.2869 14.9926 25.2698 14.9183 25.253L14.9183 25.253C14.8911 25.2469 14.8639 25.2407 14.837 25.2355C14.8077 25.2355 14.7793 25.2291 14.7507 25.2227C14.7291 25.2179 14.7074 25.2131 14.6852 25.211C14.651 25.2077 14.6102 25.2088 14.5694 25.2099H14.5694C14.549 25.2104 14.5286 25.211 14.509 25.211C14.4481 25.211 14.3859 25.2053 14.3247 25.1997C14.2654 25.1943 14.207 25.1889 14.1516 25.1889C14.0306 25.1885 13.9097 25.1942 13.7893 25.2061C13.6541 25.215 13.5199 25.2347 13.3878 25.2648C13.2228 25.3012 13.0632 25.3588 12.9129 25.4362C12.8468 25.4735 12.7837 25.516 12.7244 25.5635C12.6944 25.5943 12.6673 25.6279 12.6437 25.6638C12.5772 25.7332 12.5433 25.8275 12.5506 25.9233C12.5566 25.9875 12.5931 26.0448 12.6486 26.0775C12.7222 26.1166 12.7982 26.151 12.8762 26.1803C12.8979 26.1909 12.921 26.1983 12.9448 26.2024L13.3095 26.244C13.3674 26.2474 13.4254 26.2474 13.4833 26.244H13.7428L13.9998 26.2318H14.0953L14.5383 26.1632L14.766 26.1265L14.9423 26.0898L15.214 26.0384L15.4318 25.9845L15.4617 25.9773C15.5232 25.9626 15.5858 25.9475 15.6448 25.9307C15.7058 25.9132 15.7706 25.89 15.8324 25.8679L15.8553 25.8597C15.8843 25.8491 15.9133 25.8388 15.9422 25.8284C16.0207 25.8004 16.0984 25.7726 16.1736 25.7422C16.2764 25.7006 16.34 25.6687 16.4183 25.6296L16.4183 25.6296L16.4183 25.6296C16.4364 25.6079 16.4425 25.5956 16.4464 25.5877C16.4478 25.5848 16.4489 25.5825 16.4502 25.5806ZM21.9212 24.5721C21.8831 24.5871 21.8416 24.5913 21.8013 24.5843L22.3545 24.4007L22.3398 24.4252L21.9212 24.5721Z" fill="#333333"/>
<path d="M27.5368 23.2551C27.6005 23.2551 27.6543 23.3163 27.6274 23.3482C27.6248 23.3561 27.6248 23.3647 27.6274 23.3726C27.6274 23.4118 27.598 23.4314 27.5491 23.4436H27.5295C27.4866 23.4685 27.432 23.4593 27.3997 23.4216C27.3896 23.4102 27.3806 23.3979 27.3728 23.3849C27.341 23.3139 27.3948 23.2625 27.5074 23.2527L27.5368 23.2551Z" fill="#333333"/>
<path opacity="0.06" d="M41.2889 36.7188H6.0389C4.95734 36.7188 4.08057 35.8421 4.08057 34.7605V35.2501C4.08057 36.3316 4.95734 37.2084 6.0389 37.2084H41.2889C42.3705 37.2084 43.2472 36.3316 43.2472 35.2501V34.7605C43.2472 35.8421 42.3705 36.7188 41.2889 36.7188Z" fill="black"/>
</svg>
